<?xml version="1.0" standalone="no"?><!DOCTYPE svg PUBLIC "-//W3C//DTD SVG 1.1//EN" "http://www.w3.org/Graphics/SVG/1.1/DTD/svg11.dtd"><svg t="1714902426920" class="icon" viewBox="0 0 1024 1024" version="1.1" xmlns="http://www.w3.org/2000/svg" p-id="20351" xmlns:xlink="http://www.w3.org/1999/xlink" width="64" height="64"><path d="M560.96256 92.16c-119.28576 0-230.6048 50.18112-309.52448 136.6016a35.51232 35.51232 0 0 0 2.23744 50.1248 35.4048 35.4048 0 0 0 50.06336-2.24256c65.6384-71.86432 158.04416-113.52576 257.22368-113.52576 192.44544 0 348.45184 156.20096 348.45184 348.88192 0 192.68096-156.0064 348.8768-348.45184 348.8768-99.51744 0-192.21504-41.94304-257.87392-114.23744a35.4048 35.4048 0 0 0-50.05824-2.37568 35.51232 35.51232 0 0 0-2.37568 50.11968C329.60512 881.3056 441.27232 931.84 560.96256 931.84c231.58272 0 419.32288-187.97056 419.32288-419.84s-187.74016-419.84-419.328-419.84z" fill="#81CAF9" p-id="20352"></path><path d="M465.40288 476.5184A35.456 35.456 0 0 1 500.8384 512a35.47648 35.47648 0 0 1-29.68576 35.01568l-5.74976 0.4608H81.5104A35.456 35.456 0 0 1 46.08 512a35.47648 35.47648 0 0 1 29.68576-35.01568l5.74976-0.4608h383.88736z" fill="#146dca" p-id="20353" data-spm-anchor-id="a313x.search_index.0.i1.699c3a81mTw2Rc" class="selected"></path><path d="M605.312 495.06304a29.51168 29.51168 0 0 1 4.58752 37.97504l-3.38944 4.21376L474.7264 673.5872a29.5936 29.5936 0 0 1-41.8048 0.73216 29.51168 29.51168 0 0 1-4.08064-37.6064l3.34848-4.1472 110.85312-114.68288-109.66016-101.17632a29.51168 29.51168 0 0 1-4.8896-37.50912l3.25632-4.21888a29.60384 29.60384 0 0 1 37.56032-4.88448l4.224 3.2512 131.77856 121.72288z" fill="#146dca" p-id="20354" data-spm-anchor-id="a313x.search_index.0.i0.699c3a81mTw2Rc" class="selected"></path></svg>