<?xml version="1.0" standalone="no"?><!DOCTYPE svg PUBLIC "-//W3C//DTD SVG 1.1//EN" "http://www.w3.org/Graphics/SVG/1.1/DTD/svg11.dtd"><svg t="1714742060221" class="icon" viewBox="0 0 1024 1024" version="1.1" xmlns="http://www.w3.org/2000/svg" p-id="4315" xmlns:xlink="http://www.w3.org/1999/xlink" width="64" height="64"><path d="M45.176471 1008.941176c-9.035294 0-15.058824-3.011765-21.082353-9.035294-12.047059-12.047059-12.047059-30.117647 0-42.164706l933.647058-933.647058c12.047059-12.047059 30.117647-12.047059 42.164706 0s12.047059 30.117647 0 42.164706l-933.647058 933.647058c-6.023529 6.023529-12.047059 9.035294-21.082353 9.035294zM391.529412 1024c-9.035294 0-15.058824-3.011765-21.082353-9.035294-12.047059-12.047059-12.047059-30.117647 0-42.164706l602.352941-602.352941c12.047059-12.047059 30.117647-12.047059 42.164706 0s12.047059 30.117647 0 42.164706l-602.352941 602.352941c-6.023529 6.023529-12.047059 9.035294-21.082353 9.035294zM722.823529 1024c-9.035294 0-15.058824-3.011765-21.082353-9.035294-12.047059-12.047059-12.047059-30.117647 0-42.164706l271.058824-271.058824c12.047059-12.047059 30.117647-12.047059 42.164706 0s12.047059 30.117647 0 42.164706l-271.058824 271.058824c-6.023529 6.023529-12.047059 9.035294-21.082353 9.035294zM30.117647 662.588235c-9.035294 0-15.058824-3.011765-21.082353-9.035294-12.047059-12.047059-12.047059-30.117647 0-42.164706l602.352941-602.352941c12.047059-12.047059 30.117647-12.047059 42.164706 0s12.047059 30.117647 0 42.164706l-602.352941 602.352941c-6.023529 6.023529-12.047059 9.035294-21.082353 9.035294zM30.117647 331.294118c-9.035294 0-15.058824-3.011765-21.082353-9.035294-12.047059-12.047059-12.047059-30.117647 0-42.164706l271.058824-271.058824c12.047059-12.047059 30.117647-12.047059 42.164706 0s12.047059 30.117647 0 42.164706l-271.058824 271.058824c-6.023529 6.023529-12.047059 9.035294-21.082353 9.035294z" fill="#666666" p-id="4316"></path></svg>