<?xml version="1.0" standalone="no"?><!DOCTYPE svg PUBLIC "-//W3C//DTD SVG 1.1//EN" "http://www.w3.org/Graphics/SVG/1.1/DTD/svg11.dtd"><svg t="1714567943650" class="icon" viewBox="0 0 1024 1024" version="1.1" xmlns="http://www.w3.org/2000/svg" p-id="4287" xmlns:xlink="http://www.w3.org/1999/xlink" width="64" height="64"><path d="M640.218 335.76l212.986-0.218 170.678 213.262-0.436 213.264H597.262z" fill="#E6E9ED" p-id="4288"></path><path d="M682.586 719.422c0 23.556-19.09 42.646-42.68 42.646H42.764c-23.558 0-42.646-19.09-42.646-42.646V207.57c0-23.558 19.12-42.646 42.678-42.646h597.142c23.558 0 42.648 19.088 42.648 42.646v511.852z" fill="#5D9CEC" p-id="4289"></path><path d="M714.578 741.792c0 64.796 52.52 117.286 117.286 117.286 64.796 0 117.316-52.488 117.316-117.286s-52.52-117.286-117.316-117.286c-64.766 0-117.286 52.488-117.286 117.286z" fill="#434A54" p-id="4290"></path><path d="M789.216 741.792c0 23.556 19.09 42.646 42.646 42.646 23.558 0 42.646-19.09 42.646-42.646s-19.088-42.646-42.646-42.646c-23.556-0.002-42.646 19.088-42.646 42.646z" fill="#E6E9ED" p-id="4291"></path><path d="M213.38 741.792m-115.286 0a115.286 115.286 0 1 0 230.572 0 115.286 115.286 0 1 0-230.572 0Z" fill="#434A54" p-id="4292"></path><path d="M213.38 741.792m-42.646 0a42.646 42.646 0 1 0 85.292 0 42.646 42.646 0 1 0-85.292 0Z" fill="#E6E9ED" p-id="4293"></path><path d="M128.12 570.112l121.846-203.11 121.878 203.11z" fill="#E6E9ED" p-id="4294"></path><path d="M229.658 570.112l162.494-284.34 162.492 284.34z" fill="#F5F7FA" p-id="4295"></path></svg>