<?xml version="1.0" standalone="no"?><!DOCTYPE svg PUBLIC "-//W3C//DTD SVG 1.1//EN" "http://www.w3.org/Graphics/SVG/1.1/DTD/svg11.dtd"><svg t="1711772258818" class="icon" viewBox="0 0 1024 1024" version="1.1" xmlns="http://www.w3.org/2000/svg" p-id="1316" xmlns:xlink="http://www.w3.org/1999/xlink" width="64" height="64"><path d="M871.4 923.4H304.1c-23.7 0-43-19.2-43-43V461.2c0-23.7 19.2-43 43-43h567.3c23.7 0 43 19.2 43 43v419.2c0 23.7-19.2 43-43 43z" fill="#0055FE" opacity=".1" p-id="1317"></path><path d="M833.9 166.1c22.2 0 40.2 18.1 40.2 40.2v643.8c0 22.2-18.1 40.2-40.2 40.2H190.1c-22.2 0-40.2-18.1-40.2-40.2V206.4c0-22.2 18.1-40.2 40.2-40.2h643.8m0-40.3H190.1c-44.5 0-80.5 36-80.5 80.5v643.8c0 44.4 36 80.5 80.5 80.5h643.8c44.4 0 80.5-36 80.5-80.5V206.4c0-44.5-36-80.5-80.5-80.5z" p-id="1318"></path><path d="M130.4 297h755.8v40.2H130.4z" p-id="1319"></path><path d="M338.5 798.7c-5.9 0-11.7-2.5-15.6-7.4L200.2 640.2c-6.1-7.5-6-18.3 0.3-25.7l122.7-145c7.2-8.5 19.8-9.6 28.4-2.4 8.5 7.2 9.5 19.9 2.4 28.4L242 627.8l112.2 138.1c7 8.6 5.7 21.3-2.9 28.3-3.8 3.1-8.3 4.5-12.8 4.5zM685.5 798.7c-4.4 0-8.9-1.5-12.7-4.5-8.6-7-9.9-19.7-2.9-28.3L782 627.8 670 495.5c-7.2-8.5-6.1-21.2 2.4-28.4 8.5-7.2 21.2-6.1 28.4 2.4l122.7 145c6.2 7.4 6.3 18.2 0.3 25.7L701.1 791.3c-4 4.9-9.8 7.4-15.6 7.4zM452.3 793.2c-2.3 0-4.6-0.4-6.9-1.2-10.4-3.8-15.8-15.3-12-25.8l103.6-285c3.8-10.4 15.3-15.8 25.8-12 10.4 3.8 15.8 15.3 12 25.8L471.2 779.9c-2.9 8.2-10.7 13.3-18.9 13.3z" fill="#0055FE" p-id="1320"></path></svg>