<?xml version="1.0" standalone="no"?><!DOCTYPE svg PUBLIC "-//W3C//DTD SVG 1.1//EN" "http://www.w3.org/Graphics/SVG/1.1/DTD/svg11.dtd"><svg t="1716133402776" class="icon" viewBox="0 0 1024 1024" version="1.1" xmlns="http://www.w3.org/2000/svg" p-id="4216" width="512" height="512" xmlns:xlink="http://www.w3.org/1999/xlink"><path d="M839.4 197.3c3.1-0.4 5.7 2 5.7 5.4l-0.8 414.6c0 3.5-2.6 6.6-5.7 7l-679.3 95.8c-3.1 0.4-5.7-2-5.7-5.4l0.8-414.6c0-3.5 2.6-6.6 5.7-7l679.3-95.8z" fill="#7BB7FF" p-id="4217"></path><path d="M888.2 241.8c3.1-0.4 5.7 2 5.7 5.4l-0.8 414.6c0 3.5-2.6 6.6-5.7 7l-679.3 95.8c-3.1 0.4-5.7-2-5.7-5.4l0.8-414.6c0-3.5 2.6-6.6 5.7-7l679.3-95.8z" fill="#7BB7FF" p-id="4218"></path><path d="M710.6 662.2L671 640.7l0.1-83 39.6 21.5z" fill="#7BB7FF" p-id="4219"></path><path d="M710.7 579.2l-39.6-21.5 136.5-19.2 39.5 21.6z" fill="#D5E1FF" p-id="4220"></path><path d="M847.1 560.1L847 643l-136.4 19.2 0.1-83z" fill="#BBD2FF" p-id="4221"></path><path d="M520.5 693.9L481 672.3l0.4-241.3 39.6 21.5z" fill="#7BB7FF" p-id="4222"></path><path d="M521 452.5L481.4 431l136.4-19.2 39.6 21.6z" fill="#D5E1FF" p-id="4223"></path><path d="M657.4 433.4l-0.5 241.3-136.4 19.2 0.5-241.4z" fill="#BBD2FF" p-id="4224"></path><path d="M321 720.1l-39.5-21.5 0.2-137.1 39.6 21.5z" fill="#7BB7FF" p-id="4225"></path><path d="M321.3 583l-39.6-21.5 136.4-19.2 39.6 21.5z" fill="#D5E1FF" p-id="4226"></path><path d="M457.7 563.8l-0.3 137.2L321 720.1l0.3-137.1z" fill="#BBD2FF" p-id="4227"></path><path d="M371.4 422.4l170.4-129.5c0.5 5.4 2.8 9.9 6.2 13.1L378.5 434.8c-0.9-5.2-3.5-9.5-7.1-12.4zM576.2 304.6c3.9-3.6 6.9-8.5 8.2-13.9l165.3 120.5c-3.8 3.9-6.5 8.9-7.6 14.4l-165.9-121zM914 265c1.7 4.7 5 8.5 9.2 10.6l-138.4 144c-1.1-5.2-3.8-9.5-7.6-12.3L914 265z" fill="#FFDCDC" p-id="4228"></path><path d="M368.1 420c1.7 0.4 3.4 1 4.9 1.8l-7.4-4c-0.2-0.1-0.5-0.2-0.7-0.4-1.1-0.6-2.4-1-3.6-1.3-0.2-0.1-0.4-0.1-0.6-0.1-0.3-0.1-0.5-0.1-0.8-0.1-1.7-0.3-3.5-0.5-5.3-0.3-0.4 0-0.7 0.1-1.1 0.1-1.4 0.2-2.7 0.5-4 1-0.4 0.1-0.8 0.3-1.2 0.4-0.5 0.2-1 0.3-1.5 0.6-0.4 0.2-0.7 0.4-1 0.6-0.6 0.3-1.1 0.6-1.7 1-0.3 0.2-0.7 0.3-1 0.6-0.5 0.3-0.9 0.7-1.3 1.1-0.3 0.3-0.6 0.5-1 0.8-0.2 0.1-0.3 0.2-0.5 0.4-0.8 0.7-1.6 1.5-2.3 2.3 0 0.1-0.1 0.1-0.1 0.2-0.1 0.2-0.3 0.3-0.4 0.5-0.5 0.6-1.1 1.3-1.5 1.9-0.2 0.3-0.4 0.6-0.6 1-0.2 0.4-0.5 0.7-0.7 1.1l-0.6 0.9c-0.3 0.5-0.5 1.1-0.7 1.7-0.2 0.5-0.5 1-0.7 1.6l-0.3 0.6c-0.3 0.8-0.5 1.6-0.7 2.4-0.1 0.5-0.3 1-0.4 1.4-0.3 1.5-0.6 3-0.6 4.6-0.4 9.2 3.8 16.8 10.5 20.5l7.4 4c-6.7-3.6-10.9-11.3-10.5-20.5 0.1-1.6 0.3-3.1 0.6-4.6 0.1-0.5 0.3-1 0.4-1.4 0.3-1 0.6-2 0.9-2.9 0.2-0.5 0.5-1.1 0.7-1.6 0.4-0.9 0.8-1.8 1.3-2.6 0.2-0.4 0.5-0.8 0.7-1.1 0.7-1 1.4-2 2.1-2.9 0.1-0.2 0.3-0.3 0.4-0.5 0.9-1 1.9-2 2.9-2.9 0.3-0.3 0.6-0.5 1-0.8 0.7-0.6 1.5-1.1 2.3-1.6 0.6-0.4 1.1-0.7 1.7-1 0.8-0.4 1.6-0.8 2.5-1.2 0.4-0.2 0.8-0.3 1.2-0.4 1.3-0.4 2.6-0.8 4-1 0.4-0.1 0.7-0.1 1.1-0.1 1.9-0.2 3.6 0 5.3 0.3 0.3-0.2 0.6-0.2 0.9-0.1z" fill="#FF7777" p-id="4229"></path><path d="M360.8 419.7c0.4-0.1 0.7-0.1 1.1-0.1 12.5-1.1 22.2 9 21.6 22.7-0.6 13.2-10.6 24.8-22.7 26.5-0.4 0.1-0.8 0.1-1.2 0.1-12.5 1.1-22.2-9-21.6-22.7 0.7-13.2 10.8-24.8 22.8-26.5z" fill="#FFAFAF" p-id="4230"></path><path d="M577.5 265.8c1.7 0.4 3.4 1 4.9 1.8l-7.4-4c-0.2-0.1-0.5-0.2-0.7-0.4-1.1-0.6-2.4-1-3.6-1.3-0.2-0.1-0.4-0.1-0.6-0.1-0.3-0.1-0.5-0.1-0.8-0.1-1.7-0.3-3.5-0.5-5.3-0.3-0.4 0-0.7 0.1-1.1 0.1-1.4 0.2-2.7 0.5-4 1-0.4 0.1-0.8 0.3-1.2 0.4-0.5 0.2-1 0.3-1.5 0.6-0.4 0.2-0.7 0.4-1 0.6-0.6 0.3-1.1 0.6-1.7 1-0.3 0.2-0.7 0.3-1 0.6-0.5 0.3-0.9 0.7-1.3 1.1-0.3 0.3-0.6 0.5-1 0.8-0.2 0.1-0.3 0.2-0.5 0.4-0.8 0.7-1.6 1.5-2.3 2.3 0 0.1-0.1 0.1-0.1 0.2-0.1 0.2-0.3 0.3-0.4 0.5-0.5 0.6-1.1 1.3-1.5 1.9-0.2 0.3-0.4 0.6-0.6 1-0.2 0.4-0.5 0.7-0.7 1.1l-0.6 0.9c-0.3 0.5-0.5 1.1-0.7 1.7-0.2 0.5-0.5 1-0.7 1.6l-0.3 0.6c-0.3 0.8-0.5 1.6-0.7 2.4-0.1 0.5-0.3 1-0.4 1.4-0.3 1.5-0.6 3-0.6 4.6-0.4 9.2 3.8 16.8 10.5 20.5l7.4 4c-6.7-3.6-10.9-11.3-10.5-20.5 0.1-1.6 0.3-3.1 0.6-4.6 0.1-0.5 0.3-1 0.4-1.4 0.3-1 0.6-2 0.9-2.9 0.2-0.5 0.5-1.1 0.7-1.6 0.4-0.9 0.8-1.8 1.3-2.6 0.2-0.4 0.5-0.8 0.7-1.1 0.7-1 1.4-2 2.1-2.9 0.1-0.2 0.3-0.3 0.4-0.5 0.9-1 1.9-2 2.9-2.9 0.3-0.3 0.6-0.5 1-0.8 0.7-0.6 1.5-1.1 2.3-1.6 0.6-0.4 1.1-0.7 1.7-1 0.8-0.4 1.6-0.8 2.5-1.2 0.4-0.2 0.8-0.3 1.2-0.4 1.3-0.4 2.6-0.8 4-1 0.4-0.1 0.7-0.1 1.1-0.1 1.9-0.2 3.6 0 5.3 0.3 0.4-0.1 0.7-0.1 0.9-0.1z" fill="#FF7777" p-id="4231"></path><path d="M570.3 265.5c0.4-0.1 0.7-0.1 1.1-0.1 12.5-1.1 22.2 9 21.6 22.7-0.6 13.2-10.6 24.8-22.7 26.5-0.4 0.1-0.8 0.1-1.2 0.1-12.5 1.1-22.2-9-21.6-22.7 0.7-13.2 10.8-24.8 22.8-26.5z" fill="#FFAFAF" p-id="4232"></path><path d="M777.7 406.7c1.7 0.4 3.4 1 4.9 1.8l-7.4-4c-0.2-0.1-0.5-0.2-0.7-0.4-1.1-0.6-2.4-1-3.6-1.3-0.2-0.1-0.4-0.1-0.6-0.1-0.3-0.1-0.5-0.1-0.8-0.1-1.7-0.3-3.5-0.5-5.3-0.3-0.4 0-0.7 0.1-1.1 0.1-1.4 0.2-2.7 0.5-4 1-0.4 0.1-0.8 0.3-1.2 0.4-0.5 0.2-1 0.3-1.5 0.6-0.4 0.2-0.7 0.4-1 0.6-0.6 0.3-1.1 0.6-1.7 1-0.3 0.2-0.7 0.3-1 0.6-0.5 0.3-0.9 0.7-1.3 1.1-0.3 0.3-0.6 0.5-1 0.8-0.2 0.1-0.3 0.2-0.5 0.4-0.8 0.7-1.6 1.5-2.3 2.3 0 0.1-0.1 0.1-0.1 0.2-0.1 0.2-0.3 0.3-0.4 0.5-0.5 0.6-1.1 1.3-1.5 1.9-0.2 0.3-0.4 0.6-0.6 1-0.2 0.4-0.5 0.7-0.7 1.1l-0.6 0.9c-0.3 0.5-0.5 1.1-0.7 1.7-0.2 0.5-0.5 1-0.7 1.6l-0.3 0.6c-0.3 0.8-0.5 1.6-0.7 2.4-0.1 0.5-0.3 1-0.4 1.4-0.3 1.5-0.6 3-0.6 4.6-0.4 9.2 3.8 16.8 10.5 20.5l7.4 4c-6.7-3.6-10.9-11.3-10.5-20.5 0.1-1.6 0.3-3.1 0.6-4.6 0.1-0.5 0.3-1 0.4-1.4 0.3-1 0.6-2 0.9-2.9 0.2-0.5 0.5-1.1 0.7-1.6 0.4-0.9 0.8-1.8 1.3-2.6 0.2-0.4 0.5-0.8 0.7-1.1 0.7-1 1.4-2 2.1-2.9 0.1-0.2 0.3-0.3 0.4-0.5 0.9-1 1.9-2 2.9-2.9 0.3-0.3 0.6-0.5 1-0.8 0.7-0.6 1.5-1.1 2.3-1.6 0.6-0.4 1.1-0.7 1.7-1 0.8-0.4 1.6-0.8 2.5-1.2 0.4-0.2 0.8-0.3 1.2-0.4 1.3-0.4 2.6-0.8 4-1 0.4-0.1 0.7-0.1 1.1-0.1 1.9-0.2 3.6 0 5.3 0.3 0.3-0.2 0.6-0.2 0.9-0.1z" fill="#FF7777" p-id="4233"></path><path d="M770.5 406.4c0.4-0.1 0.7-0.1 1.1-0.1 12.5-1.1 22.2 9 21.6 22.7-0.6 13.2-10.6 24.8-22.7 26.5-0.4 0.1-0.8 0.1-1.2 0.1-12.5 1.1-22.2-9-21.6-22.7 0.6-13.2 10.7-24.8 22.8-26.5z" fill="#FFAFAF" p-id="4234"></path><path d="M950 233c1.7 0.4 3.4 1 4.9 1.8l-7.4-4c-0.2-0.1-0.5-0.2-0.7-0.4-1.1-0.6-2.4-1-3.6-1.3-0.2-0.1-0.4-0.1-0.6-0.1-0.3-0.1-0.5-0.1-0.8-0.1-1.7-0.3-3.5-0.5-5.3-0.3-0.4 0-0.7 0.1-1.1 0.1-1.4 0.2-2.7 0.5-4 1-0.4 0.1-0.8 0.3-1.2 0.4-0.5 0.2-1 0.3-1.5 0.6-0.4 0.2-0.7 0.4-1 0.6-0.6 0.3-1.1 0.6-1.7 1-0.3 0.2-0.7 0.3-1 0.6-0.5 0.3-0.9 0.7-1.3 1.1-0.3 0.3-0.6 0.5-1 0.8-0.2 0.1-0.3 0.2-0.5 0.4-0.8 0.7-1.6 1.5-2.3 2.3 0 0.1-0.1 0.1-0.1 0.2-0.1 0.2-0.3 0.3-0.4 0.5-0.5 0.6-1.1 1.3-1.5 1.9-0.2 0.3-0.4 0.6-0.6 1-0.2 0.4-0.5 0.7-0.7 1.1l-0.6 0.9c-0.3 0.5-0.5 1.1-0.7 1.7-0.2 0.5-0.5 1-0.7 1.6l-0.3 0.6c-0.3 0.8-0.5 1.6-0.7 2.4-0.1 0.5-0.3 1-0.4 1.4-0.3 1.5-0.6 3-0.6 4.6-0.4 9.2 3.8 16.8 10.5 20.5l7.4 4c-6.7-3.6-10.9-11.3-10.5-20.5 0.1-1.6 0.3-3.1 0.6-4.6 0.1-0.5 0.3-1 0.4-1.4 0.3-1 0.6-2 0.9-2.9 0.2-0.5 0.5-1.1 0.7-1.6 0.4-0.9 0.8-1.8 1.3-2.6 0.2-0.4 0.5-0.8 0.7-1.1 0.7-1 1.4-2 2.1-2.9 0.1-0.2 0.3-0.3 0.4-0.5 0.9-1 1.9-2 2.9-2.9 0.3-0.3 0.6-0.5 1-0.8 0.7-0.6 1.5-1.1 2.3-1.6 0.6-0.4 1.1-0.7 1.7-1 0.8-0.4 1.6-0.8 2.5-1.2 0.4-0.2 0.8-0.3 1.2-0.4 1.3-0.4 2.6-0.8 4-1 0.4-0.1 0.7-0.1 1.1-0.1 1.9-0.2 3.6 0 5.3 0.3 0.4-0.2 0.7-0.2 0.9-0.1z" fill="#FF7777" p-id="4235"></path><path d="M942.8 232.7c0.4-0.1 0.7-0.1 1.1-0.1 12.5-1.1 22.2 9 21.6 22.7-0.6 13.2-10.6 24.8-22.7 26.5-0.4 0.1-0.8 0.1-1.2 0.1-12.5 1.1-22.2-9-21.6-22.7 0.7-13.3 10.8-24.9 22.8-26.5z" fill="#FFAFAF" p-id="4236"></path><path d="M567.2 534.2c11.8-2.2 21.7 0.7 29.9 6.8 8.3 6.1 15 15.2 21.1 25.9 12.1 21.2 21.6 48.4 33.2 69.5 7.7 14.1 16.3 25.3 26.5 30.3 5.9 2.9 12.2 3.9 19.6 2.5 9.7-1.9 17.7-7.2 25-15.3 7.3-8.1 13.7-19.1 19.7-31.6 11.9-25 21.5-55.8 33.5-82.1 8-17.5 17.1-33.2 29.2-43.8 6.9-6 14.9-10.3 23.8-12 2-0.4 3.7 1 3.7 3.1s-1.7 4.1-3.7 4.5c-9.7 1.9-17.7 7.2-25 15.3-7.3 8.1-13.8 19.1-19.7 31.5-11.9 25-21.5 55.9-33.5 82.2-8 17.5-17.1 33.2-29.2 43.8-6.9 6-14.8 10.3-23.6 12-12 2.3-21.9-0.6-30.1-6.7-8.3-6.1-15-15.3-21.1-25.8-12.1-21.2-21.6-48.5-33.2-69.6-7.7-14.1-16.3-25.3-26.5-30.3-5.9-2.9-12.2-3.9-19.6-2.5-9.7 1.9-17.7 7.2-25 15.3-7.3 8.1-13.7 19.1-19.6 31.5-11.9 25-21.5 55.9-33.5 82.2-8 17.5-17.1 33.2-29.2 43.8-6.9 6-14.8 10.3-23.6 12-12 2.3-21.9-0.6-30.1-6.7-8.3-6.1-15-15.3-21.1-25.8-12.2-21.2-21.7-48.5-33.2-69.6-7.7-14.1-16.3-25.3-26.5-30.3-5.9-2.9-12.2-3.9-19.6-2.5-9.7 1.9-17.7 7.2-25 15.3-7.3 8.1-13.7 19.1-19.7 31.5-11.9 25-21.5 55.9-33.5 82.2-8 17.5-17.1 33.2-29.2 43.8-6.8 6-14.8 10.3-23.6 12-11.9 2.3-21.9-0.6-30.1-6.7-8.3-6.1-15-15.2-21.1-25.8-12.1-21.2-21.6-48.5-33.2-69.6-7.7-14.1-16.3-25.3-26.5-30.3-5.9-2.9-12.2-3.9-19.6-2.5-2.1 0.4-3.7-1-3.7-3.1s1.6-4.1 3.7-4.5c11.8-2.2 21.7 0.7 29.9 6.8 8.3 6.1 15 15.2 21.1 25.9 12.1 21.2 21.6 48.4 33.2 69.5 7.7 14.1 16.3 25.3 26.5 30.4 5.9 2.9 12.2 3.9 19.6 2.5 9.7-1.9 17.7-7.2 25-15.3 7.3-8.1 13.7-19.1 19.6-31.6 11.9-25 21.5-55.8 33.5-82.1 8-17.5 17.1-33.2 29.2-43.8 6.9-6 14.9-10.3 23.8-12 11.8-2.2 21.7 0.7 30 6.8s15 15.3 21.1 25.9c12.2 21.2 21.7 48.4 33.2 69.5 7.7 14.1 16.3 25.3 26.5 30.3 5.9 2.9 12.2 3.9 19.6 2.5 9.7-1.9 17.7-7.2 25-15.3 7.3-8.1 13.7-19.1 19.7-31.6 11.8-25 21.5-55.8 33.4-82.1 8-17.5 17.1-33.2 29.2-43.8 6.9-6.4 14.9-10.7 23.8-12.4z" fill="#203040" p-id="4237"></path><path d="M583.8 556.9c11.8-2.2 21.7 0.7 29.9 6.8 8.3 6.1 15 15.2 21.1 25.9 12.1 21.2 21.6 48.4 33.2 69.5 7.7 14.1 16.3 25.3 26.5 30.3 5.9 2.9 12.2 3.9 19.6 2.5 9.7-1.9 17.7-7.2 25-15.3 7.3-8.1 13.7-19.1 19.7-31.6 11.9-25 21.5-55.8 33.5-82.1 8-17.5 17.1-33.2 29.2-43.8 6.9-6 14.9-10.3 23.8-12 2-0.4 3.7 1 3.7 3.1s-1.7 4.1-3.7 4.5c-9.7 1.9-17.7 7.2-25 15.3-7.3 8.1-13.8 19.1-19.7 31.5-11.9 25-21.5 55.9-33.5 82.2-8 17.5-17.1 33.2-29.2 43.8-6.9 6-14.8 10.3-23.6 12-12 2.3-21.9-0.6-30.1-6.7-8.3-6.1-15-15.3-21.1-25.8-12.1-21.2-21.6-48.5-33.2-69.6-7.7-14.1-16.3-25.3-26.5-30.3-5.9-2.9-12.2-3.9-19.6-2.5-9.7 1.9-17.7 7.2-25 15.3-7.3 8.1-13.7 19.1-19.6 31.5-11.9 25-21.5 55.9-33.5 82.2-8 17.5-17.1 33.2-29.2 43.8-6.9 6-14.8 10.3-23.6 12-12 2.3-21.9-0.6-30.1-6.7-8.3-6.1-15-15.3-21.1-25.8-12.2-21.2-21.7-48.5-33.2-69.6-7.7-14.1-16.3-25.3-26.5-30.3-5.9-2.9-12.2-3.9-19.6-2.5-9.7 1.9-17.7 7.2-25 15.3-7.3 8.1-13.7 19.1-19.7 31.5-11.9 25-21.5 55.9-33.5 82.2-8 17.5-17.1 33.2-29.2 43.8-6.8 6-14.8 10.3-23.6 12-11.9 2.3-21.9-0.6-30.1-6.7-8.3-6.1-15-15.2-21.1-25.8-12.1-21.2-21.6-48.5-33.2-69.6-7.7-14.1-16.3-25.3-26.5-30.3-5.9-2.9-12.2-3.9-19.6-2.5-2.1 0.4-3.7-1-3.7-3.1s1.6-4.1 3.7-4.5c11.8-2.2 21.7 0.7 29.9 6.8 8.3 6.1 15 15.2 21.1 25.9 12.1 21.2 21.6 48.4 33.2 69.5 7.7 14.1 16.3 25.3 26.5 30.4 5.9 2.9 12.2 3.9 19.6 2.5 9.7-1.9 17.7-7.2 25-15.3 7.3-8.1 13.7-19.1 19.6-31.6 11.9-25 21.5-55.8 33.5-82.1 8-17.5 17.1-33.2 29.2-43.8 6.9-6 14.9-10.3 23.8-12 11.8-2.2 21.7 0.7 30 6.8s15 15.3 21.1 25.9c12.2 21.2 21.7 48.4 33.2 69.5 7.7 14.1 16.3 25.3 26.5 30.3 5.9 2.9 12.2 3.9 19.6 2.5 9.7-1.9 17.7-7.2 25-15.3 7.3-8.1 13.7-19.1 19.7-31.6 11.8-25 21.5-55.8 33.4-82.1 8-17.5 17.1-33.2 29.2-43.8 6.8-6.4 14.8-10.7 23.8-12.4z" fill="#344D66" p-id="4238"></path></svg>