<?xml version="1.0" standalone="no"?><!DOCTYPE svg PUBLIC "-//W3C//DTD SVG 1.1//EN" "http://www.w3.org/Graphics/SVG/1.1/DTD/svg11.dtd"><svg t="1711772370609" class="icon" viewBox="0 0 1024 1024" version="1.1" xmlns="http://www.w3.org/2000/svg" p-id="1746" xmlns:xlink="http://www.w3.org/1999/xlink" width="64" height="64"><path d="M919.87592 142.681236v575.912005H108.01026V142.681236" fill="#F0F0FF" p-id="1747"></path><path d="M899.292343 142.681236v575.912005l20.583577-20.583576H108.01026l20.583576 20.583576V142.681236h-41.167153v596.495582h853.032813V142.681236z" fill="#6E6E96" p-id="1748"></path><path d="M55.0446 57.634014c0-18.113547 14.820175-32.933722 32.933723-32.933722h848.043354c18.113547 0 32.933722 14.820175 32.933723 32.933722v50.573848c0 18.113547-14.820175 32.933722-32.933723 32.933722H87.978323c-18.113547 0-32.933722-14.820175-32.933723-32.933722V57.634014z" fill="#99EBFF" p-id="1749"></path><path d="M75.628177 57.634014c0-6.693779 5.656367-12.350146 12.350146-12.350146h848.043354c6.693779 0 12.350146 5.656367 12.350146 12.350146v50.573848c0 6.693779-5.656367 12.350146-12.350146 12.350146H87.978323c-6.693779 0-12.350146-5.656367-12.350146-12.350146V57.634014zM34.461024 108.207862c0 29.508615 24.008684 53.517299 53.517299 53.517299h848.043354c29.508615 0 53.517299-24.008684 53.517299-53.517299V57.634014c0-29.508615-24.008684-53.517299-53.517299-53.517299H87.978323C58.469708 4.116715 34.461024 28.125399 34.461024 57.634014v50.573848z" fill="#6E6E96" p-id="1750"></path><path d="M333.972646 994.540785l179.970444-179.97456v-95.972984" fill="#FFFFFF" p-id="1751"></path><path d="M348.529352 1009.093374l179.970443-179.978677 6.030988-6.022754v-104.498702h-41.17127v95.972984l6.030988-14.552588-179.97456 179.97456z" fill="#6E6E96" p-id="1752"></path><path d="M528.487445 800.013637l191.966552 191.962435-29.105178 29.109294-191.966551-191.966552zM318.209743 376.461265h41.167154v210.74289h-41.167154zM489.547435 248.176183h41.167153v339.027972h-41.167153zM664.318467 340.547041h41.167153v246.657114h-41.167153z" fill="#6E6E96" p-id="1753"></path><path d="M108.01026 161.725161h811.86566v41.167153H108.01026z" fill="#6E6E96" opacity=".15" p-id="1754"></path><path d="M55.0446 83.054731h913.9108v41.167154H55.0446z" fill="#6E6E96" opacity=".15" p-id="1755"></path><path d="M108.01026 655.27816h811.86566v41.167153H108.01026z" fill="#6E6E96" opacity=".15" p-id="1756"></path></svg>