<?xml version="1.0" standalone="no"?><!DOCTYPE svg PUBLIC "-//W3C//DTD SVG 1.1//EN" "http://www.w3.org/Graphics/SVG/1.1/DTD/svg11.dtd"><svg t="1711772800557" class="icon" viewBox="0 0 1024 1024" version="1.1" xmlns="http://www.w3.org/2000/svg" p-id="1168" xmlns:xlink="http://www.w3.org/1999/xlink" width="64" height="64"><path d="M242.1 593.9c-6.7 0-13.5-0.8-20.1-2.5-21.2-5.4-39.1-18.6-50.3-37.4-11.2-18.8-14.4-40.8-9.1-62 9.2-36.4 41.8-61.8 79.3-61.8 6.7 0 13.5 0.8 20.1 2.5 21.2 5.3 39 18.6 50.3 37.4 11.2 18.8 14.4 40.8 9.1 62-9.2 36.4-41.8 61.8-79.3 61.8z" fill="#FFFFFF" p-id="1169"></path><path d="M241.9 451.1c5 0 10 0.6 15 1.9 15.8 4 29.1 13.9 37.4 27.8 8.3 14 10.7 30.4 6.8 46.1-6.8 27.1-31.1 46-59 46-5 0-10.1-0.6-15-1.9-15.8-4-29.1-13.9-37.4-27.8-8.3-14-10.7-30.4-6.8-46.1 6.9-27.1 31.1-46 59-46m0-41.9c-46 0-87.8 31.1-99.6 77.7-13.9 55 19.5 110.9 74.5 124.8 8.4 2.1 16.9 3.1 25.2 3.1 46 0 87.8-31.1 99.6-77.7 13.9-55-19.5-110.9-74.5-124.8-8.4-2.1-16.8-3.1-25.2-3.1z" p-id="1170"></path><path d="M766.4 344.8c-6.7 0-13.5-0.8-20.1-2.5-43.8-11-70.4-55.6-59.3-99.4 9.2-36.4 41.8-61.8 79.3-61.8 6.7 0 13.5 0.8 20.1 2.5 43.8 11 70.4 55.6 59.3 99.4-9.2 36.3-41.8 61.8-79.3 61.8z" fill="#FFFFFF" p-id="1171"></path><path d="M766.2 201.9c5 0 10 0.6 15 1.9 15.8 4 29.1 13.9 37.4 27.8 8.3 14 10.7 30.4 6.8 46.1-6.8 27.1-31.1 46-59 46-5 0-10.1-0.6-15-1.9-15.8-4-29.1-13.9-37.4-27.8-8.3-14-10.7-30.4-6.8-46.1 6.9-27 31.1-46 59-46m0-41.8c-46 0-87.8 31.1-99.6 77.7-13.9 55 19.5 110.9 74.5 124.8 8.4 2.1 16.9 3.1 25.2 3.1 46 0 87.8-31.1 99.6-77.7 13.9-55-19.5-110.9-74.5-124.8-8.4-2.1-16.9-3.1-25.2-3.1z" p-id="1172"></path><path d="M766.4 843c-6.7 0-13.5-0.8-20.1-2.5-43.8-11-70.4-55.6-59.3-99.4 9.2-36.4 41.8-61.9 79.3-61.9 6.7 0 13.5 0.8 20.1 2.5 43.8 11 70.4 55.6 59.3 99.4-9.2 36.5-41.8 61.9-79.3 61.9z" fill="#FFFFFF" p-id="1173"></path><path d="M766.2 700.2c5 0 10 0.6 15 1.9 15.8 4 29.1 13.9 37.4 27.8 8.3 14 10.7 30.4 6.8 46.1-6.8 27.1-31.1 46-59 46-5 0-10.1-0.6-15-1.9-15.8-4-29.1-13.9-37.4-27.8-8.3-14-10.7-30.4-6.8-46.1 6.9-27.1 31.1-46 59-46m0-41.9c-46 0-87.8 31.1-99.6 77.7-13.9 55 19.5 110.9 74.5 124.8 8.4 2.1 16.9 3.1 25.2 3.1 46 0 87.8-31.1 99.6-77.7 13.9-55-19.5-110.9-74.5-124.8-8.4-2.1-16.9-3.1-25.2-3.1zM320.8 491.1h366.6V533H320.8z" p-id="1174"></path><path d="M441.4 522.4l-36.3-20.8 157.6-274.9h124.7v41.9H586.9z" p-id="1175"></path><path d="M687.4 797.3H562.7L405.1 522.4l36.3-20.8 145.5 253.8h100.5z" p-id="1176"></path><path d="M766.3 512m-102.8 0a102.8 102.8 0 1 0 205.6 0 102.8 102.8 0 1 0-205.6 0Z" fill="#FFFFFF" p-id="1177"></path><path d="M766.3 630.5c-9.6 0-19.3-1.2-29-3.6-63.3-16-101.9-80.5-85.9-143.9 16-63.4 80.7-101.9 143.9-85.9 63.3 16 101.9 80.5 85.9 143.9-13.6 53.7-62 89.5-114.9 89.5z m0-205.6c-38.9 0-74.5 26.4-84.5 65.8-11.8 46.6 16.6 94 63.1 105.8 46.4 11.7 94-16.6 105.8-63.1 11.7-46.6-16.6-94-63.1-105.8-7.1-1.8-14.3-2.7-21.3-2.7zM866 537.2h0.2-0.2z" fill="#0055FE" p-id="1178"></path></svg>