<?xml version="1.0" standalone="no"?><!DOCTYPE svg PUBLIC "-//W3C//DTD SVG 1.1//EN" "http://www.w3.org/Graphics/SVG/1.1/DTD/svg11.dtd"><svg t="1711772357032" class="icon" viewBox="0 0 1044 1024" version="1.1" xmlns="http://www.w3.org/2000/svg" p-id="1398" xmlns:xlink="http://www.w3.org/1999/xlink" width="65.25" height="64"><path d="M43.885777 880.642721l329.143327-438.85777 276.480395 149.211642 285.257551-390.583415v779.701045H43.885777z" fill="#E7FFBD" p-id="1399"></path><path d="M654.139449 593.07239l-276.484784-149.207253-329.143327 438.853381v99.471502h1.097144l349.989072-450.553329 276.484783 149.207253 263.314662-377.413293v-100.937287z" fill="#D1EBA5" p-id="1400"></path><path d="M21.942888 0v1002.057112h1022.538604v-43.885777H43.885777l21.942888 21.942888V0z" fill="#6E6E96" p-id="1401"></path><path d="M61.440088 893.808454l329.143327-438.85777a21.942888 21.942888 0 0 1-27.977183 6.144009l276.480395 149.211642a21.951666 21.951666 0 0 0 28.143949-6.367827l285.25755-390.583415A21.942888 21.942888 0 0 1 912.824161 200.417566v779.705434a21.942888 21.942888 0 0 1 21.942889-21.942888H43.885777a21.942888 21.942888 0 0 1 21.942888 21.942888v-99.471502a21.942888 21.942888 0 0 1-4.388577 13.156956z m895.26985-693.395276a21.942888 21.942888 0 0 0-39.663965-12.937527l-285.25755 390.579026a21.951666 21.951666 0 0 1 28.143948-6.363437l-276.480395-149.207254a21.942888 21.942888 0 0 0-27.977182 6.144009l-329.143328 438.85777a21.942888 21.942888 0 0 0-4.388578 13.165733v99.471502a21.942888 21.942888 0 0 0 21.942889 21.942889h890.881273a21.942888 21.942888 0 0 0 21.942888-21.942889" fill="#6E6E96" p-id="1402"></path></svg>