<?xml version="1.0" standalone="no"?><!DOCTYPE svg PUBLIC "-//W3C//DTD SVG 1.1//EN" "http://www.w3.org/Graphics/SVG/1.1/DTD/svg11.dtd"><svg t="1711685445985" class="icon" viewBox="0 0 1024 1024" version="1.1" xmlns="http://www.w3.org/2000/svg" p-id="1276" xmlns:xlink="http://www.w3.org/1999/xlink" width="64" height="64"><path d="M308.224 162.133333m60.279467 0l493.841066 0q60.279467 0 60.279467 60.279467l0 375.808q0 60.279467-60.279467 60.279467l-493.841066 0q-60.279467 0-60.279467-60.279467l0-375.808q0-60.279467 60.279467-60.279467Z" fill="#8DD1FF" p-id="1277"></path><path d="M764.586667 203.093333H193.058133a91.7504 91.7504 0 0 0-91.682133 91.682134V662.186667a91.7504 91.7504 0 0 0 91.682133 91.682133h258.525867v53.179733h-150.186667a27.306667 27.306667 0 0 0 0 54.613334h354.986667a27.306667 27.306667 0 0 0 0-54.613334h-150.186667v-53.179733H764.586667A91.7504 91.7504 0 0 0 856.405333 662.186667V294.775467A91.7504 91.7504 0 0 0 764.586667 203.093333zM801.792 662.186667a37.0688 37.0688 0 0 1-37.0688 37.0688H193.058133A37.0688 37.0688 0 0 1 155.989333 662.186667V294.775467a37.137067 37.137067 0 0 1 37.0688-37.0688H764.586667a37.137067 37.137067 0 0 1 37.0688 37.0688z" fill="#333333" p-id="1278"></path><path d="M752.0256 349.252267a27.306667 27.306667 0 0 0-6.007467-16.7936 18.773333 18.773333 0 0 0-1.501866-1.774934l-0.955734-1.024a27.306667 27.306667 0 0 0-19.2512-8.055466h-157.013333a27.306667 27.306667 0 0 0 0 54.613333h90.794667L512.477867 520.874667 431.581867 430.08a27.306667 27.306667 0 0 0-18.909867-9.079467 27.306667 27.306667 0 0 0-19.729067 6.826667L214.562133 587.9808a27.306667 27.306667 0 0 0 18.2272 47.786667 27.306667 27.306667 0 0 0 18.2272-6.826667l158.037334-141.858133 81.92 91.613866a27.306667 27.306667 0 0 0 19.524266 9.079467 26.487467 26.487467 0 0 0 20.0704-7.918933l166.980267-165.888v92.433066a27.306667 27.306667 0 0 0 27.306667 27.306667 27.306667 27.306667 0 0 0 27.306666-27.306667z" fill="#333333" p-id="1279"></path></svg>