<?xml version="1.0" standalone="no"?><!DOCTYPE svg PUBLIC "-//W3C//DTD SVG 1.1//EN" "http://www.w3.org/Graphics/SVG/1.1/DTD/svg11.dtd"><svg t="1712242730562" class="icon" viewBox="0 0 1183 1024" version="1.1" xmlns="http://www.w3.org/2000/svg" p-id="1603" xmlns:xlink="http://www.w3.org/1999/xlink" width="73.9375" height="64"><path d="M318.311279 350.807094a92.317656 92.317656 0 1 0 92.317657 92.317657 92.317656 92.317656 0 0 0-92.317657-92.317657zM590.833001 350.807094a92.317656 92.317656 0 1 0 92.317656 92.317657A92.317656 92.317656 0 0 0 590.833001 350.807094zM864.462535 350.807094a92.317656 92.317656 0 1 0 92.317656 92.317657 92.317656 92.317656 0 0 0-92.317656-92.317657z" fill="#1296db" p-id="1604" data-spm-anchor-id="a313x.collections_detail.0.i8.200a3a81XUSkHo" class="selected"></path><path d="M1033.957752 110.781188a36.927063 36.927063 0 0 1 36.927062 36.927062v590.833001a36.927063 36.927063 0 0 1-36.927062 36.927063h-314.249303l-32.495815 32.495815L590.833001 904.343762l-96.379633-96.379633-32.495815-32.495815H147.70825a36.927063 36.927063 0 0 1-36.927062-36.927063V147.70825a36.927063 36.927063 0 0 1 36.927062-36.927062h886.249502m0-110.781188H147.70825a147.70825 147.70825 0 0 0-147.70825 147.70825v590.833001a147.70825 147.70825 0 0 0 147.70825 147.70825h268.459745l110.781188 110.781188a92.686927 92.686927 0 0 0 130.721801 0l110.781188-110.781188H1033.957752a147.70825 147.70825 0 0 0 147.70825-147.70825V147.70825a147.70825 147.70825 0 0 0-147.70825-147.70825z" fill="#4C4A58" p-id="1605"></path></svg>