<?xml version="1.0" standalone="no"?><!DOCTYPE svg PUBLIC "-//W3C//DTD SVG 1.1//EN" "http://www.w3.org/Graphics/SVG/1.1/DTD/svg11.dtd"><svg t="1714818291351" class="icon" viewBox="0 0 1024 1024" version="1.1" xmlns="http://www.w3.org/2000/svg" p-id="1106" xmlns:xlink="http://www.w3.org/1999/xlink" width="64" height="64"><path d="M736.529067 707.447467L513.911467 730.453333a19.387733 19.387733 0 0 1-4.437334 0l-222.0032-22.9376A53.521067 53.521067 0 0 1 232.106667 655.906133V331.434667A53.521067 53.521067 0 0 1 287.470933 279.893333l223.982934 23.005867a24.098133 24.098133 0 0 0 4.437333 0L736.529067 279.893333a53.521067 53.521067 0 0 1 55.364266 51.541334v324.471466a53.521067 53.521067 0 0 1-55.364266 51.541334z" fill="#8DD1FF" p-id="1107"></path><path d="M818.653867 177.493333a37.2736 37.2736 0 0 0-3.8912 0l-303.5136 44.100267-302.011734-43.758933a37.2736 37.2736 0 0 0-3.8912 0C148.616533 177.493333 102.4 220.637867 102.4 273.544533v432.605867c0 52.224 45.056 94.890667 100.829867 95.573333L504.6272 846.506667a37.2736 37.2736 0 0 0 3.959467 0h3.413333a26.692267 26.692267 0 0 0 8.123733-1.365334l300.373334-43.008c55.842133-1.024 100.898133-43.6224 100.898133-95.573333V273.544533C921.6 220.637867 875.383467 177.493333 818.653867 177.493333z m-613.307734 570.026667c-26.624 0-48.3328-18.568533-48.3328-41.3696V273.544533c0-22.3232 20.48-40.5504 46.557867-40.96L484.693333 273.066667v515.072l-275.387733-40.209067a25.736533 25.736533 0 0 0-3.959467-0.4096z m661.640534-41.3696c0 22.801067-21.7088 41.3696-48.3328 41.3696a24.849067 24.849067 0 0 0-3.8912 0L539.306667 787.114667V273.066667l281.122133-40.96c25.8048 0.750933 46.557867 18.978133 46.557867 40.96z" fill="#333333" p-id="1108"></path></svg>