<?xml version="1.0" standalone="no"?><!DOCTYPE svg PUBLIC "-//W3C//DTD SVG 1.1//EN" "http://www.w3.org/Graphics/SVG/1.1/DTD/svg11.dtd"><svg t="1712244645947" class="icon" viewBox="0 0 1024 1024" version="1.1" xmlns="http://www.w3.org/2000/svg" p-id="3779" xmlns:xlink="http://www.w3.org/1999/xlink" width="64" height="64"><path d="M215.4624 479.5392A128 128 0 0 1 341.952 371.2h455.296a128 128 0 0 1 126.4896 108.3392l51.712 332.8C987.52 889.9456 927.5008 960 848.9728 960H290.2272c-78.528 0-138.5344-70.0544-126.4768-147.6608l51.712-332.8z" fill="#7acdf8" p-id="3780" data-spm-anchor-id="a313x.collections_detail.0.i36.67e03a81TTK5d9" class=""></path><path d="M736.6784 466.1248a51.2 51.2 0 0 1-6.016 72.1664l-249.6 211.2a51.2 51.2 0 0 1-69.2608-2.8928l-128-128a51.2 51.2 0 1 1 72.3968-72.3968l94.6944 94.6816 213.632-180.7744a51.2 51.2 0 0 1 72.1664 6.016z" fill="#1296db" p-id="3781" data-spm-anchor-id="a313x.collections_detail.0.i37.67e03a81TTK5d9" class="selected"></path><path d="M66.5216 416.8576A204.8 204.8 0 0 1 268.928 243.2h486.1184a204.8 204.8 0 0 1 202.4192 173.6576l47.2576 307.2C1023.8336 848.128 927.8464 960 802.3168 960H221.696C96.1536 960 0.1792 848.128 19.264 724.0576l47.2576-307.2zM268.928 294.4A153.6 153.6 0 0 0 117.12 424.64l-47.2704 307.2C55.552 824.896 127.5392 908.8 221.6704 908.8h580.6464c94.144 0 166.144-83.9168 151.808-176.96l-47.2448-307.2A153.6 153.6 0 0 0 755.072 294.4H268.928z" fill="#3A4453" p-id="3782"></path><path d="M204.8 256c0-113.1136 91.6864-204.8 204.8-204.8h179.2c113.1136 0 204.8 91.6864 204.8 204.8v25.6h-51.2v-25.6c0-84.8256-68.7744-153.6-153.6-153.6H409.6c-84.8256 0-153.6 68.7744-153.6 153.6v25.6h-51.2v-25.6z" fill="#3A4453" p-id="3783"></path></svg>