<?xml version="1.0" standalone="no"?><!DOCTYPE svg PUBLIC "-//W3C//DTD SVG 1.1//EN" "http://www.w3.org/Graphics/SVG/1.1/DTD/svg11.dtd"><svg t="1711694459462" class="icon" viewBox="0 0 1024 1024" version="1.1" xmlns="http://www.w3.org/2000/svg" p-id="940" xmlns:xlink="http://www.w3.org/1999/xlink" width="64" height="64"><path d="M307.2 177.493333m44.714667 0l320.170666 0q44.714667 0 44.714667 44.714667l0 320.170667q0 44.714667-44.714667 44.714666l-320.170666 0q-44.714667 0-44.714667-44.714666l0-320.170667q0-44.714667 44.714667-44.714667Z" fill="#8DD1FF" p-id="941"></path><path d="M796.330667 846.506667h-568.661334A91.272533 91.272533 0 0 1 136.533333 755.370667v-363.861334A91.272533 91.272533 0 0 1 227.669333 300.373333H307.2a27.306667 27.306667 0 0 1 0 54.613334H227.669333A36.590933 36.590933 0 0 0 191.146667 391.509333v363.861334a36.590933 36.590933 0 0 0 36.522666 36.522666h568.661334a36.590933 36.590933 0 0 0 36.522666-36.522666v-363.861334a36.590933 36.590933 0 0 0-36.522666-36.522666H716.8a27.306667 27.306667 0 0 1 0-54.613334h79.530667A91.272533 91.272533 0 0 1 887.466667 391.509333v363.861334A91.272533 91.272533 0 0 1 796.330667 846.506667z" fill="#333333" p-id="942"></path><path d="M621.226667 423.253333a27.306667 27.306667 0 0 1-27.306667-27.306666V303.7184A44.782933 44.782933 0 0 0 548.727467 259.413333H475.272533A44.782933 44.782933 0 0 0 430.08 303.7184V395.946667a27.306667 27.306667 0 0 1-54.613333 0V303.7184A99.464533 99.464533 0 0 1 475.272533 204.8h73.454934A99.464533 99.464533 0 0 1 648.533333 303.7184V395.946667a27.306667 27.306667 0 0 1-27.306666 27.306666zM512 730.453333a122.88 122.88 0 1 1 122.88-122.88 122.88 122.88 0 0 1-122.88 122.88z m0-191.146666a68.266667 68.266667 0 1 0 68.266667 68.266666 68.266667 68.266667 0 0 0-68.266667-68.266666z" fill="#333333" p-id="943"></path></svg>