<?xml version="1.0" standalone="no"?><!DOCTYPE svg PUBLIC "-//W3C//DTD SVG 1.1//EN" "http://www.w3.org/Graphics/SVG/1.1/DTD/svg11.dtd"><svg t="1712242697896" class="icon" viewBox="0 0 1131 1024" version="1.1" xmlns="http://www.w3.org/2000/svg" p-id="1227" xmlns:xlink="http://www.w3.org/1999/xlink" width="70.6875" height="64"><path d="M533.583414 174.08725V849.204726L346.758452 687.855895 318.451639 661.672094H141.534062a35.383515 35.383515 0 0 1-35.383516-35.383516v-228.223675a35.383515 35.383515 0 0 1 35.383516-35.383515h173.733061l30.075988-25.829967 188.240303-163.118006M590.550874 0.000354a47.767746 47.767746 0 0 0-31.491329 11.67656l-283.068124 245.207762H141.534062a141.534062 141.534062 0 0 0-141.534062 141.534062v227.86984a141.534062 141.534062 0 0 0 141.534062 141.534062h135.872699l283.068124 244.500092a47.767746 47.767746 0 0 0 31.491329 11.67656 48.475416 48.475416 0 0 0 20.876274-4.599857 51.659933 51.659933 0 0 0 28.306813-46.70624v-919.971403a51.659933 51.659933 0 0 0-28.306813-45.99857 44.229394 44.229394 0 0 0-22.291614-6.722868z" fill="#4C4A58" p-id="1228"></path><path d="M781.268022 255.823171a44.937065 44.937065 0 0 0-16.630252 3.184516 47.767746 47.767746 0 0 0-27.245307 25.829967 52.367603 52.367603 0 0 0 22.64545 68.997855 169.840874 169.840874 0 0 1 76.782229 154.979798c0 121.365458-68.997855 161.702666-70.767031 162.764171a52.367603 52.367603 0 0 0-22.999286 68.290185 47.767746 47.767746 0 0 0 66.167174 22.64545c4.953692-2.476846 125.61148-67.582515 125.61148-254.407477a268.914718 268.914718 0 0 0-133.042018-247.684608 46.352405 46.352405 0 0 0-20.876274-4.953692z" fill="#13227a" p-id="1229" data-spm-anchor-id="a313x.collections_detail.0.i5.200a3a81XUSkHo" class=""></path><path d="M929.171117 102.258714a51.306097 51.306097 0 0 0-10.615055 0 48.121581 48.121581 0 0 0-30.783658 21.937779 53.075273 53.075273 0 0 0 14.507241 70.767031c5.307527 3.892187 131.272842 93.058646 131.272843 315.620958s-121.011623 312.436442-125.61148 315.620959a52.367603 52.367603 0 0 0-13.799571 70.767031 48.475416 48.475416 0 0 0 31.137493 21.937779 44.937065 44.937065 0 0 0 9.907385 0 48.121581 48.121581 0 0 0 27.245307-8.845879c6.722868-4.599857 169.487039-120.657788 169.487039-400.89523S962.785457 114.996779 955.354918 110.396922a46.70624 46.70624 0 0 0-26.183801-8.138208z" fill="#1296db" p-id="1230" data-spm-anchor-id="a313x.collections_detail.0.i6.200a3a81XUSkHo" class="selected"></path></svg>