<?xml version="1.0" standalone="no"?><!DOCTYPE svg PUBLIC "-//W3C//DTD SVG 1.1//EN" "http://www.w3.org/Graphics/SVG/1.1/DTD/svg11.dtd"><svg t="1712244610527" class="icon" viewBox="0 0 1024 1024" version="1.1" xmlns="http://www.w3.org/2000/svg" p-id="2870" xmlns:xlink="http://www.w3.org/1999/xlink" width="64" height="64"><path d="M972.8 268.8m0 179.2l0 268.8q0 179.2-179.2 179.2l-396.8 0q-179.2 0-179.2-179.2l0-268.8q0-179.2 179.2-179.2l396.8 0q179.2 0 179.2 179.2Z" fill="#7acdf8" p-id="2871" data-spm-anchor-id="a313x.collections_detail.0.i30.67e03a81TTK5d9" class=""></path><path d="M44.8 377.6a25.6 25.6 0 0 1 25.6-25.6H960a25.6 25.6 0 1 1 0 51.2H70.4a25.6 25.6 0 0 1-25.6-25.6z" fill="#3A4453" p-id="2872"></path><path d="M793.6 102.4c113.1136 0 204.8 91.6864 204.8 204.8v409.6c0 113.1136-91.6864 204.8-204.8 204.8H230.4C117.2864 921.6 25.6 829.9136 25.6 716.8V307.2C25.6 194.0864 117.2864 102.4 230.4 102.4h563.2z m153.6 204.8c0-84.8256-68.7744-153.6-153.6-153.6H230.4c-84.8256 0-153.6 68.7744-153.6 153.6v409.6c0 84.8256 68.7744 153.6 153.6 153.6h563.2c84.8256 0 153.6-68.7744 153.6-153.6V307.2z" fill="#3A4453" p-id="2873"></path><path d="M576 729.6a51.2 51.2 0 0 1 51.2-51.2h192a51.2 51.2 0 0 1 0 102.4H627.2a51.2 51.2 0 0 1-51.2-51.2z" fill="#1296db" p-id="2874" data-spm-anchor-id="a313x.collections_detail.0.i31.67e03a81TTK5d9" class="selected"></path></svg>