<?xml version="1.0" standalone="no"?><!DOCTYPE svg PUBLIC "-//W3C//DTD SVG 1.1//EN" "http://www.w3.org/Graphics/SVG/1.1/DTD/svg11.dtd"><svg t="1711694515578" class="icon" viewBox="0 0 1024 1024" version="1.1" xmlns="http://www.w3.org/2000/svg" p-id="7686" xmlns:xlink="http://www.w3.org/1999/xlink" width="64" height="64"><path d="M424.6 849.2h-217V178.5h217c23.7-0.7 42.7-20.1 42.7-44s-19-43.3-42.7-44H172.1c-28.9 0-52.5 23.6-52.5 52.5v741.7c0 28.9 23.6 52.5 52.5 52.5h252.5c23.7-0.7 42.7-20.1 42.7-44s-19-43.3-42.7-44z" p-id="7687" data-spm-anchor-id="a313x.search_index.0.i2.2ca13a81x6KFQy" class="" fill="#515151"></path><path d="M888.2 482.7l-164-164c-17.1-17.1-45.1-17.1-62.2 0s-17.1 45.1 0 62.2l85.7 85.7H432.9c-26 0-47.2 21.3-47.2 47.2 0 26 21.3 47.2 47.2 47.2h314.7l-85.7 85.7c-17.1 17.1-17.1 45.1 0 62.2s45.1 17.1 62.2 0l164-164c17.2-17.1 17.2-45.1 0.1-62.2z" p-id="7688" data-spm-anchor-id="a313x.search_index.0.i0.2ca13a81x6KFQy" class="selected" fill="#1296db"></path></svg>