<?xml version="1.0" standalone="no"?><!DOCTYPE svg PUBLIC "-//W3C//DTD SVG 1.1//EN" "http://www.w3.org/Graphics/SVG/1.1/DTD/svg11.dtd"><svg t="1711694383073" class="icon" viewBox="0 0 1024 1024" version="1.1" xmlns="http://www.w3.org/2000/svg" p-id="1106" xmlns:xlink="http://www.w3.org/1999/xlink" width="64" height="64"><path d="M597.344853 896v-170.666667a85.333333 85.333333 0 1 0-170.666666 0v170.666667h170.666666z" fill="#1296db" p-id="1107" data-spm-anchor-id="a313x.collections_detail.0.i0.59ca3a81I2uQ2z" class=""></path><path d="M569.398187 64.938667a85.333333 85.333333 0 0 0-114.773334 0L13.96352 465.493333a42.666667 42.666667 0 1 0 57.429333 63.146667L85.344853 515.925333V853.333333a128 128 0 0 0 128 128h597.333334a128 128 0 0 0 128-128v-337.408l13.952 12.714667a42.666667 42.666667 0 1 0 57.429333-63.146667L569.398187 64.938667zM853.344853 438.357333V853.333333a42.666667 42.666667 0 0 1-42.666666 42.666667h-128v-170.666667a170.666667 170.666667 0 1 0-341.333334 0v170.666667H213.344853a42.666667 42.666667 0 0 1-42.666666-42.666667v-414.976l341.333333-310.314666 341.333333 310.314666zM597.344853 725.333333v170.666667h-170.666666v-170.666667a85.333333 85.333333 0 1 1 170.666666 0z" fill="#707070" p-id="1108" data-spm-anchor-id="a313x.collections_detail.0.i1.59ca3a81I2uQ2z" class="selected"></path></svg>