<?xml version="1.0" standalone="no"?><!DOCTYPE svg PUBLIC "-//W3C//DTD SVG 1.1//EN" "http://www.w3.org/Graphics/SVG/1.1/DTD/svg11.dtd"><svg t="1711685427708" class="icon" viewBox="0 0 1024 1024" version="1.1" xmlns="http://www.w3.org/2000/svg" p-id="940" xmlns:xlink="http://www.w3.org/1999/xlink" width="64" height="64"><path d="M207.325867 477.184a255.1808 254.7712 0 1 0 510.3616 0 255.1808 254.7712 0 1 0-510.3616 0Z" fill="#8DD1FF" p-id="941"></path><path d="M640.477867 680.823467a283.374933 283.374933 0 1 0-214.152534 0L330.410667 797.832533a55.637333 55.637333 0 0 0 43.076266 90.862934h319.829334a55.637333 55.637333 0 0 0 43.076266-90.862934zM304.674133 418.6112A228.693333 228.693333 0 1 1 587.093333 640.955733c-3.8912 0.887467-7.7824 1.774933-11.741866 2.4576h-1.8432c-3.822933 0.682667-7.645867 1.2288-11.4688 1.706667h-1.774934c-4.164267 0.477867-8.328533 0.8192-12.4928 1.092267h-0.6144a253.815467 253.815467 0 0 1-27.306666 0h-0.682667c-4.164267 0-8.328533-0.6144-12.424533-1.092267h-1.8432c-3.822933-0.477867-7.5776-1.024-11.400534-1.706667h-1.8432c-3.959467-0.682667-7.850667-1.570133-11.810133-2.4576a229.102933 229.102933 0 0 1-175.172267-222.344533z m389.597867 414.856533c0 0.6144-0.477867 0.6144-0.955733 0.6144H373.486933c-0.477867 0-0.682667 0-0.955733-0.6144s0-0.6144 0-1.024l110.7968-135.031466h2.048l8.738133 1.365333 4.573867 0.6144 8.3968 0.955733h5.393067l7.850666 0.546134H546.542933l7.918934-0.546134h5.256533l8.465067-0.955733 4.573866-0.6144 8.738134-1.365333h2.048l110.660266 135.031466c0.273067 0.4096 0.341333 0.4096 0.068267 1.024z" fill="#333333" p-id="942"></path><path d="M533.367467 591.803733a105.335467 105.335467 0 0 1-105.2672-105.130666 27.306667 27.306667 0 1 1 54.613333 0 50.722133 50.722133 0 0 0 101.376 0 27.306667 27.306667 0 0 1 54.613333 0 105.335467 105.335467 0 0 1-105.335466 105.130666z" fill="#333333" p-id="943"></path></svg>