<?xml version="1.0" standalone="no"?><!DOCTYPE svg PUBLIC "-//W3C//DTD SVG 1.1//EN" "http://www.w3.org/Graphics/SVG/1.1/DTD/svg11.dtd"><svg t="1712242496458" class="icon" viewBox="0 0 1024 1024" version="1.1" xmlns="http://www.w3.org/2000/svg" p-id="4385" xmlns:xlink="http://www.w3.org/1999/xlink" width="64" height="64"><path d="M680.5 452m-250 0a250 250 0 1 0 500 0 250 250 0 1 0-500 0Z" fill="#1296db" p-id="4386" data-spm-anchor-id="a313x.search_index.0.i0.27153a81MU9jUn" class="selected"></path><path d="M205.9 887c-6.8 0-13.6-1.9-19.6-5.5-11.4-7-18.2-19.6-17.8-32.9v-1.8l10.2-73.6h-24c-51.4 0-93.2-41.8-93.2-93.2V230.2c0-51.4 41.8-93.2 93.2-93.2h673.5c51.4 0 93.2 41.8 93.2 93.2v449.7c0 51.4-41.8 93.2-93.2 93.2H385c-0.4 0-0.8 0.1-1.1 0.3l-0.1 0.1-158.7 108.2-1.4 0.8c-5.5 3-11.7 4.5-17.8 4.5z m-51.2-686c-16.1 0-29.2 13.1-29.2 29.2v449.7c0 16.1 13.1 29.2 29.2 29.2h47.5c11.7 0 23.1 4.8 31.2 13.2 8.2 8.4 12.7 19.9 12.3 31.6v1.8l-5.3 38.1 107.2-73.1c11-7.6 23.9-11.6 37.3-11.6h443.2c16.1 0 29.2-13.1 29.2-29.2V230.2c0-16.1-13.1-29.2-29.2-29.2H154.7z" p-id="4387"></path><path d="M743.5 414h-487c-17.7 0-32-14.3-32-32s14.3-32 32-32h487c17.7 0 32 14.3 32 32s-14.3 32-32 32zM507.5 567h-251c-17.7 0-32-14.3-32-32s14.3-32 32-32h251c17.7 0 32 14.3 32 32s-14.3 32-32 32z" p-id="4388"></path></svg>