<?xml version="1.0" standalone="no"?><!DOCTYPE svg PUBLIC "-//W3C//DTD SVG 1.1//EN" "http://www.w3.org/Graphics/SVG/1.1/DTD/svg11.dtd"><svg t="1714818256945" class="icon" viewBox="0 0 1024 1024" version="1.1" xmlns="http://www.w3.org/2000/svg" p-id="940" xmlns:xlink="http://www.w3.org/1999/xlink" width="64" height="64"><path d="M403.387733 575.8976L505.173333 160.290133a21.777067 21.777067 0 0 1 39.185067-6.826666l141.243733 210.670933a22.664533 22.664533 0 0 0 6.280534 6.212267l194.3552 125.883733a21.777067 21.777067 0 0 1-8.669867 39.799467l-449.809067 66.56a21.777067 21.777067 0 0 1-24.3712-26.692267z" fill="#8DD1FF" p-id="941"></path><path d="M828.757333 181.725867a53.725867 53.725867 0 0 0-62.327466-9.0112l-604.023467 293.546666a60.484267 60.484267 0 0 0-34.133333 60.8256 50.449067 50.449067 0 0 0 39.594666 44.032l229.649067 51.063467 43.2128 217.019733a50.517333 50.517333 0 0 0 43.6224 40.96A66.423467 66.423467 0 0 0 491.52 880.64a60.689067 60.689067 0 0 0 54.203733-34.816l292.181334-601.429333a53.725867 53.725867 0 0 0-9.147734-62.6688z m-332.322133 639.863466a7.509333 7.509333 0 0 1-3.072 3.4816L450.56 609.211733a50.653867 50.653867 0 0 0-38.980267-39.936L182.818133 518.826667a7.645867 7.645867 0 0 1 3.4816-3.208534l600.746667-291.84z" fill="#333333" p-id="942"></path><path d="M414.583467 622.592a27.306667 27.306667 0 0 1-19.319467-46.626133l161.041067-161.041067a27.306667 27.306667 0 0 1 38.570666 38.638933L433.834667 614.4a27.306667 27.306667 0 0 1-19.2512 8.192z" fill="#333333" p-id="943"></path></svg>