<?xml version="1.0" standalone="no"?><!DOCTYPE svg PUBLIC "-//W3C//DTD SVG 1.1//EN" "http://www.w3.org/Graphics/SVG/1.1/DTD/svg11.dtd"><svg t="1712244682109" class="icon" viewBox="0 0 1024 1024" version="1.1" xmlns="http://www.w3.org/2000/svg" p-id="4228" xmlns:xlink="http://www.w3.org/1999/xlink" width="64" height="64"><path d="M204.8 512c0-70.6944 57.3056-128 128-128h473.6c70.6944 0 128 57.3056 128 128v281.6c0 70.6944-57.3056 128-128 128H332.8c-70.6944 0-128-57.3056-128-128V512z" fill="#7acdf8" p-id="4229" data-spm-anchor-id="a313x.collections_detail.0.i40.67e03a81TTK5d9" class=""></path><path d="M12.8 435.2c0-113.1136 91.6864-204.8 204.8-204.8h537.6c113.1136 0 204.8 91.6864 204.8 204.8v307.2c0 113.1136-91.6864 204.8-204.8 204.8H217.6C104.4864 947.2 12.8 855.5136 12.8 742.4V435.2z m204.8-153.6c-84.8256 0-153.6 68.7744-153.6 153.6v307.2c0 84.8256 68.7744 153.6 153.6 153.6h537.6c84.8256 0 153.6-68.7744 153.6-153.6V435.2c0-84.8256-68.7744-153.6-153.6-153.6H217.6z" fill="#3A4453" p-id="4230"></path><path d="M524.8 550.4c0-70.6944 57.3056-128 128-128h204.8c70.6944 0 128 57.3056 128 128v33.6512c0 70.6816-57.3056 128-128 128H652.8c-70.6944 0-128-57.3184-128-128V550.4z" fill="#F0F9FE" p-id="4231"></path><path d="M499.2 550.4c0-84.8256 68.7744-153.6 153.6-153.6h204.8c84.8256 0 153.6 68.7744 153.6 153.6v33.6512c0 84.8256-68.7744 153.6-153.6 153.6H652.8c-84.8256 0-153.6-68.7744-153.6-153.6V550.4z m153.6-102.4a102.4 102.4 0 0 0-102.4 102.4v33.6512a102.4 102.4 0 0 0 102.4 102.4h204.8a102.4 102.4 0 0 0 102.4-102.4V550.4a102.4 102.4 0 0 0-102.4-102.4H652.8zM12.8 281.6C12.8 168.4864 104.4864 76.8 217.6 76.8h230.4c113.1136 0 204.8 91.6864 204.8 204.8h-51.2c0-84.8256-68.7744-153.6-153.6-153.6H217.6c-84.8256 0-153.6 68.7744-153.6 153.6v153.6H12.8V281.6z" fill="#3A4453" p-id="4232"></path><path d="M691.2 563.2m-64 0a64 64 0 1 0 128 0 64 64 0 1 0-128 0Z" fill="#1296db" p-id="4233" data-spm-anchor-id="a313x.collections_detail.0.i41.67e03a81TTK5d9" class="selected"></path></svg>