<?xml version="1.0" standalone="no"?><!DOCTYPE svg PUBLIC "-//W3C//DTD SVG 1.1//EN" "http://www.w3.org/Graphics/SVG/1.1/DTD/svg11.dtd"><svg t="1711694472979" class="icon" viewBox="0 0 1024 1024" version="1.1" xmlns="http://www.w3.org/2000/svg" p-id="1106" xmlns:xlink="http://www.w3.org/1999/xlink" width="64" height="64"><path d="M457.386667 149.0944m37.819733 0l388.573867 0q37.819733 0 37.819733 37.819733l0 280.439467q0 37.819733-37.819733 37.819733l-388.573867 0q-37.819733 0-37.819733-37.819733l0-280.439467q0-37.819733 37.819733-37.819733Z" fill="#8DD1FF" p-id="1107"></path><path d="M193.262933 306.107733m25.531734 0l140.0832 0q25.531733 0 25.531733 25.531734l0 3.549866q0 25.531733-25.531733 25.531734l-140.0832 0q-25.531733 0-25.531734-25.531734l0-3.549866q0-25.531733 25.531734-25.531734Z" fill="#333333" p-id="1108"></path><path d="M798.72 642.798933h-64.853333V449.467733h62.464a57.070933 57.070933 0 0 0 57.002666-57.002666V274.295467a57.070933 57.070933 0 0 0-57.002666-56.9344h-636.928A57.070933 57.070933 0 0 0 102.4 274.295467v118.1696a57.070933 57.070933 0 0 0 57.002667 57.002666h62.464v193.3312h-60.347734a57.070933 57.070933 0 0 0-57.002666 57.002667v118.1696a57.002667 57.002667 0 0 0 57.002666 56.9344H798.72a57.070933 57.070933 0 0 0 57.002667-56.9344v-118.1696a57.070933 57.070933 0 0 0-57.002667-57.002667zM157.013333 392.465067V274.295467a2.389333 2.389333 0 0 1 2.389334-2.321067h636.928a2.389333 2.389333 0 0 1 2.389333 2.321067v118.1696a2.389333 2.389333 0 0 1-2.389333 2.389333h-636.928a2.389333 2.389333 0 0 1-2.389334-2.389333z m119.466667 57.002666h402.773333v193.3312h-402.773333z m524.356267 368.64a2.389333 2.389333 0 0 1-2.389334 2.321067h-636.928a2.321067 2.321067 0 0 1-2.389333-2.321067v-118.306133a2.389333 2.389333 0 0 1 2.389333-2.389333H798.72a2.389333 2.389333 0 0 1 2.389333 2.389333z" fill="#333333" p-id="1109"></path><path d="M193.262933 731.5456m25.531734 0l140.0832 0q25.531733 0 25.531733 25.531733l0 3.549867q0 25.531733-25.531733 25.531733l-140.0832 0q-25.531733 0-25.531734-25.531733l0-3.549867q0-25.531733 25.531734-25.531733Z" fill="#333333" p-id="1110"></path></svg>