<?xml version="1.0" standalone="no"?><!DOCTYPE svg PUBLIC "-//W3C//DTD SVG 1.1//EN" "http://www.w3.org/Graphics/SVG/1.1/DTD/svg11.dtd"><svg t="1712246183330" class="icon" viewBox="0 0 1102 1024" version="1.1" xmlns="http://www.w3.org/2000/svg" p-id="4620" xmlns:xlink="http://www.w3.org/1999/xlink" width="68.875" height="64"><path d="M639.094154 977.526154c-40.487385 11.027692-83.101538 16.935385-127.094154 16.935384C245.563077 994.461538 29.538462 778.436923 29.538462 512S245.563077 29.538462 512 29.538462c265.728 0 481.28 214.882462 482.461538 480.295384l-81.92-3.859692C909.390769 287.507692 731.214769 111.379692 512 111.379692 290.816 111.379692 111.379692 290.816 111.379692 512c0 221.184 179.436308 400.620308 400.620308 400.620308 32.256 0 63.606154-3.820308 93.656615-11.027693l33.437539 75.933539z" fill="#7dc5eb" p-id="4621"></path><path d="M858.033231 1007.104a227.879385 227.879385 0 1 1 0-455.68 227.879385 227.879385 0 0 1 0 455.68zM827.076923 630.153846l6.774154 190.857846h6.931692v5.513846h27.648v-6.892307h6.892308L881.467077 630.153846H827.076923z m1.457231 247.059692a28.632615 28.632615 0 1 0 57.304615 0 28.632615 28.632615 0 0 0-57.304615 0z" fill="#F5A623" p-id="4622"></path><path d="M476.199385 651.933538l-53.720616-49.58523L315.076923 503.177846l53.720615-49.545846 107.401847 99.131077L691.003077 354.461538l53.681231 49.585231z" fill="#7dc5eb" p-id="4623"></path></svg>