<?xml version="1.0" standalone="no"?><!DOCTYPE svg PUBLIC "-//W3C//DTD SVG 1.1//EN" "http://www.w3.org/Graphics/SVG/1.1/DTD/svg11.dtd"><svg t="1712246374449" class="icon" viewBox="0 0 1024 1024" version="1.1" xmlns="http://www.w3.org/2000/svg" p-id="3833" xmlns:xlink="http://www.w3.org/1999/xlink" width="64" height="64"><path d="M512 64a448 448 0 1 1 0 896 448 448 0 0 1 0-896z m0 79.04a368.96 368.96 0 1 0 0 737.92 368.96 368.96 0 0 0 0-737.92z m237.184 210.112c15.68 15.168 16 40.192 0.832 55.872l-262.208 269.76a64 64 0 0 1-91.968-0.192l-95.68-99.264a39.552 39.552 0 0 1 56.96-54.848l66.56 68.992a25.6 25.6 0 0 0 36.736 0.064L693.248 353.92a39.552 39.552 0 0 1 55.936-0.768z" fill="#81CAF9" p-id="3834"></path></svg>