<?xml version="1.0" standalone="no"?><!DOCTYPE svg PUBLIC "-//W3C//DTD SVG 1.1//EN" "http://www.w3.org/Graphics/SVG/1.1/DTD/svg11.dtd"><svg t="1712251030271" class="icon" viewBox="0 0 1024 1024" version="1.1" xmlns="http://www.w3.org/2000/svg" p-id="3833" xmlns:xlink="http://www.w3.org/1999/xlink" width="64" height="64"><path d="M783.23199969 854.97600031l81.53600062-1.40800031 1.66399969 96-240 4.15999969-4.15999969-240 96-1.66399969 1.27999969 70.91200031a336.12799969 336.12799969 0 0 0-213.37600031-600.32000062L509.82399969 86.59200031a432.192 432.192 0 0 1 273.408 768.384zM251.00799969 173.82399969l-81.53599969 1.40800031-1.66399969-96 240-4.15999969 4.15999969 239.93599969-96 1.66399969-1.27999969-70.848a336.12799969 336.12799969 0 0 0 213.37599938 600.32000062l-3.58399969 96A432.192 432.192 0 0 1 251.00799969 173.82399969z" fill="#81CAF9" p-id="3834"></path></svg>