<?xml version="1.0" standalone="no"?><!DOCTYPE svg PUBLIC "-//W3C//DTD SVG 1.1//EN" "http://www.w3.org/Graphics/SVG/1.1/DTD/svg11.dtd"><svg t="1712246379891" class="icon" viewBox="0 0 1024 1024" version="1.1" xmlns="http://www.w3.org/2000/svg" p-id="3990" xmlns:xlink="http://www.w3.org/1999/xlink" width="64" height="64"><path d="M495.83828807 71.50975474c-95.96713086 0-169.75370535 16.49609218-233.17449219 50.37995719-60.74574486 32.54634403-108.3392 80.02833908-140.88554403 140.88554404-33.88386502 63.42078684-50.37995721 137.20736131-50.3799572 233.17449218v32.43488395c0 95.96713086 16.49609218 169.75370535 50.3799572 233.17449218 32.54634403 60.74574486 80.02833908 108.3392 140.88554403 140.88554403 63.42078684 33.88386502 137.20736131 50.37995721 233.17449219 50.3799572h32.43488395c95.96713086 0 169.75370535-16.49609218 233.17449217-50.3799572 60.74574486-32.54634403 108.3392-80.02833908 140.88554403-140.88554403 33.88386502-63.42078684 50.37995721-137.20736131 50.37995721-233.17449218v-32.43488395c0-95.96713086-16.49609218-169.75370535-50.37995721-233.17449218-32.54634403-60.74574486-80.02833908-108.3392-140.88554403-140.88554404-63.42078684-33.88386502-137.20736131-50.37995721-233.17449217-50.37995719h-32.43488395z m0-22.0690963h32.43488395c102.43181563 0 178.8934321 18.39091358 243.54027983 52.94353909S887.06317697 187.6511605 921.61580247 252.29800822 974.55934156 393.40647242 974.55934156 495.83828807v32.43488395c0 102.43181563-18.39091358 178.8934321-52.94353909 243.54027983S836.3488395 887.06317697 771.70199178 921.61580247 630.59352758 974.55934156 528.16171193 974.55934156h-32.43488395c-102.43181563 0-178.8934321-18.39091358-243.54027983-52.94353909S136.93682303 836.3488395 102.38419753 771.70199178 49.44065844 630.59352758 49.44065844 528.16171193v-32.43488395c0-102.43181563 18.39091358-178.8934321 52.94353909-243.54027983S187.6511605 136.93682303 252.29800822 102.38419753 393.40647242 49.44065844 495.83828807 49.44065844z" fill="#7dc5eb" p-id="3991"></path><path d="M337.5585048 715.41702181V512c0-16.03214416-12.94338246-29.12261051-29.12261049-29.12261051h-58.09813712c-16.03214416 0-29.12261051 12.94338246-29.12261048 29.12261051v261.66224281c0 16.03214416 12.94338246 29.12261051 29.12261048 29.12261048h58.09813712c16.03214416 0 29.12261051-12.94338246 29.12261049-29.12261048v-58.245221z m14.56130524-241.80591746c10.59004017-12.06087908 26.18093266-19.70924146 43.53683187-19.70924144h39.41848289c45.89017411-87.0736637 26.47510046-212.83039088 53.68562034-222.53792769 12.94338246-4.70668451 26.76926822-6.6187751 40.59515406-5.88335567 56.92146598 3.2358456 100.45829782 52.06769755 97.07536831 108.98916352l-5.1479362 90.30950932h-1.6179228l1.6179228 1.61792281-1.6179228 27.35760381h27.50468768l1.61792281 1.61792281 0.14708391-1.61792281h86.19116035c32.06428833 0 58.09813709 26.03384879 58.0981371 58.09813709 0 2.94167783-0.29416777 5.88335565-0.73541946 8.8250335l-40.30098625 261.66224278c-4.41251674 28.38719105-28.8284427 49.27310361-57.50980153 49.27310364H453.90186291c-36.03555339 0-68.09984172-16.32631195-89.42700598-42.06599295-7.06002678 24.26884206-29.41677827 42.06599294-55.89187874 42.06599295h-58.09813709c-32.06428833 0-58.09813709-26.03384879-58.09813712-58.09813712V512c0-32.06428833 26.03384879-58.09813709 58.09813712-58.09813709h58.09813709c17.3558992 0 32.94679167 7.64836235 43.53683185 19.70924144z m14.56130527 38.38889565v203.41702181c0 48.0964325 38.97723121 87.22074761 87.2207476 87.2207476h240.77633021c14.41422137 0 26.47510046-10.44295629 28.68135884-24.71009375L763.66053818 516.41251674c0.29416777-1.47083891 0.29416777-2.94167783 0.29416778-4.41251674 0-16.03214416-12.94338246-29.12261051-29.12261049-29.12261051h-146.05430415l8.67794959-150.17265311c2.35334226-40.88932181-28.8284427-76.04237186-69.71776454-78.39571411-7.50127845-0.44125168-15.00255691 0.29416777-22.35675147 2.05917448-0.1470839 0.44125168-0.29416777 0.88250335-0.44125168 1.47083892-1.91209059 7.50127845-3.2358456 18.23840253-5.14793622 37.5063923-5.73627177 57.95105322-6.76585901 66.92317059-12.35504687 93.9866066-6.17752343 29.26969439-14.70838915 55.00937539-26.62218434 77.80737855l-8.23669792 15.59089249H395.80372579c-16.17922805 0.1470839-29.12261051 13.23755023-29.12261048 29.26969439z m-104.13539513-296.07987339c-7.64836235-2.64751005-11.61962741-10.88420797-8.97211736-18.53257031 2.64751005-7.64836235 10.88420797-11.61962741 18.5325703-8.97211738l108.98916353 37.94764398c7.64836235 2.64751005 11.61962741 10.88420797 8.97211737 18.53257032-2.64751005 7.64836235-10.88420797 11.61962741-18.5325703 8.97211737l-108.98916354-37.94764398z m4.55960064 164.29270669c-7.79544624 1.61792281-15.59089249-3.38292951-17.20881531-11.17837574-1.61792281-7.79544624 3.38292951-15.59089249 11.17837575-17.2088153l113.25459638-23.68050651c7.79544624-1.61792281 15.59089249 3.38292951 17.2088153 11.17837574 1.61792281 7.79544624-3.38292951 15.59089249-11.17837573 17.20881529l-113.25459639 23.68050652z m549.94666994-164.29270669l-108.98916353 37.94764398c-7.64836235 2.64751005-15.88506028-1.32375501-18.5325703-8.97211737-2.64751005-7.64836235 1.32375501-15.88506028 8.97211736-18.53257032l108.98916353-37.94764398c7.64836235-2.64751005 15.88506028 1.32375501 18.53257034 8.97211738 2.64751005 7.50127845-1.32375501 15.88506028-8.9721174 18.53257031z m-6.6187751 164.29270669l-113.25459641-23.68050652c-7.79544624-1.61792281-12.94338246-9.41336906-11.17837572-17.20881529s9.41336906-12.94338246 17.20881529-11.17837574l113.25459639 23.68050651c7.79544624 1.61792281 12.94338246 9.41336906 11.17837573 17.2088153-1.76500668 7.79544624-9.41336906 12.79629855-17.20881528 11.17837574z" fill="#1296db" p-id="3992"></path></svg>