<?xml version="1.0" standalone="no"?><!DOCTYPE svg PUBLIC "-//W3C//DTD SVG 1.1//EN" "http://www.w3.org/Graphics/SVG/1.1/DTD/svg11.dtd"><svg t="1711685438460" class="icon" viewBox="0 0 1024 1024" version="1.1" xmlns="http://www.w3.org/2000/svg" p-id="1106" xmlns:xlink="http://www.w3.org/1999/xlink" width="64" height="64"><path d="M406.801067 498.346667H193.536A57.070933 57.070933 0 0 1 136.533333 441.070933V228.898133a57.070933 57.070933 0 0 1 57.002667-57.002666h213.265067a57.070933 57.070933 0 0 1 57.002666 57.002666v212.1728A57.070933 57.070933 0 0 1 406.801067 498.346667zM193.536 226.5088a2.389333 2.389333 0 0 0-2.389333 2.389333v212.1728a2.389333 2.389333 0 0 0 2.389333 2.389334h213.265067a2.389333 2.389333 0 0 0 2.389333-2.389334V228.898133a2.389333 2.389333 0 0 0-2.389333-2.389333z" fill="#333333" p-id="1107"></path><path d="M844.3904 469.947733l-116.5312 116.053334a54.203733 54.203733 0 0 1-76.322133 0l-116.5312-116.053334a53.589333 53.589333 0 0 1 0-75.912533l116.5312-116.053333a54.203733 54.203733 0 0 1 76.322133 0l116.5312 116.053333a53.589333 53.589333 0 0 1 0 75.912533z" fill="#8DD1FF" p-id="1108"></path><path d="M689.493333 532.0704a81.1008 81.1008 0 0 1-57.412266-23.688533l-116.5312-116.053334a80.896 80.896 0 0 1 0-114.688l116.5312-116.053333a81.5104 81.5104 0 0 1 114.824533 0l116.5312 116.053333a80.896 80.896 0 0 1 0 114.688l-116.5312 116.053334a81.237333 81.237333 0 0 1-57.412267 23.688533z m0-339.5584a26.760533 26.760533 0 0 0-18.8416 7.714133l-116.5312 116.053334a26.2144 26.2144 0 0 0 0 37.2736l116.5312 116.053333a26.8288 26.8288 0 0 0 37.6832 0l116.5312-116.053333a26.2144 26.2144 0 0 0 0-37.2736l-116.5312-116.053334A26.760533 26.760533 0 0 0 689.493333 192.512z m154.692267 180.4288zM406.801067 886.101333H193.536a57.070933 57.070933 0 0 1-57.002667-57.002666V616.925867A57.070933 57.070933 0 0 1 193.536 559.786667h213.265067a57.070933 57.070933 0 0 1 57.002666 57.002666v212.1728a57.070933 57.070933 0 0 1-57.002666 57.1392zM193.536 614.4a2.389333 2.389333 0 0 0-2.389333 2.389333v212.1728a2.389333 2.389333 0 0 0 2.389333 2.389334h213.265067a2.389333 2.389333 0 0 0 2.389333-2.389334V616.925867a2.389333 2.389333 0 0 0-2.389333-2.389334zM796.330667 886.101333H583.0656a57.002667 57.002667 0 0 1-57.002667-57.002666V616.925867A57.002667 57.002667 0 0 1 583.0656 559.786667h213.265067a57.070933 57.070933 0 0 1 57.002666 57.1392v212.1728a57.070933 57.070933 0 0 1-57.002666 57.002666zM583.0656 614.4a2.389333 2.389333 0 0 0-2.389333 2.389333v212.1728a2.389333 2.389333 0 0 0 2.389333 2.389334h213.265067a2.389333 2.389333 0 0 0 2.389333-2.389334V616.925867a2.389333 2.389333 0 0 0-2.389333-2.389334z" fill="#333333" p-id="1109"></path></svg>