<?xml version="1.0" standalone="no"?><!DOCTYPE svg PUBLIC "-//W3C//DTD SVG 1.1//EN" "http://www.w3.org/Graphics/SVG/1.1/DTD/svg11.dtd"><svg t="1711695025936" class="icon" viewBox="0 0 1024 1024" version="1.1" xmlns="http://www.w3.org/2000/svg" p-id="4268" xmlns:xlink="http://www.w3.org/1999/xlink" width="64" height="64"><path d="M675.3 803.6h-219c-50.2 0-90.9-40.7-90.9-90.9s40.7-90.9 90.9-90.9h219c50.2 0 90.9 40.8 90.9 91 0 50.1-40.7 90.8-90.9 90.8z" fill="#1792E5" p-id="4269"></path><path d="M491 666c-93.2 0.2-174.5-63.2-197-153.6-4.9-18.2-23.7-29-42-24.1-17.7 4.8-28.5 22.7-24.4 40.7C257.7 649.9 366.4 734.6 491 734.4c18.9 0.5 34.6-14.5 35-33.4 0.5-18.9-14.5-34.6-33.4-35H491z m435.1 240L772.6 749.8c153.9-151 161.5-396.6 17.2-556.8S400.5 14.7 234.3 152.1 39.5 533.4 169.6 705.4s372.7 210.8 550 88.2L877.2 954c12.8 13.9 34.5 14.7 48.4 1.9 13.9-12.8 14.7-34.5 1.9-48.4-0.4-0.6-0.9-1-1.4-1.5zM157.2 463.2c-0.2-184.3 149.1-334 333.4-334.2s334 149.1 334.2 333.4-149.1 334-333.4 334.2h-0.4c-184.1-0.1-333.5-149.2-333.8-333.4z" fill="#424242" p-id="4270"></path></svg>