<?xml version="1.0" standalone="no"?><!DOCTYPE svg PUBLIC "-//W3C//DTD SVG 1.1//EN" "http://www.w3.org/Graphics/SVG/1.1/DTD/svg11.dtd"><svg t="1711694276884" class="icon" viewBox="0 0 1024 1024" version="1.1" xmlns="http://www.w3.org/2000/svg" p-id="940" xmlns:xlink="http://www.w3.org/1999/xlink" width="64" height="64"><path d="M307.2 136.533333m67.7888 0l478.8224 0q67.7888 0 67.7888 67.7888l0 492.475734q0 67.7888-67.7888 67.7888l-478.8224 0q-67.7888 0-67.7888-67.7888l0-492.475734q0-67.7888 67.7888-67.7888Z" fill="#8DD1FF" p-id="941"></path><path d="M753.8688 887.466667H201.864533A99.601067 99.601067 0 0 1 102.4 788.002133V304.264533A99.601067 99.601067 0 0 1 201.864533 204.8h552.004267A99.601067 99.601067 0 0 1 853.333333 304.264533v483.7376A99.601067 99.601067 0 0 1 753.8688 887.466667zM201.864533 259.413333A44.919467 44.919467 0 0 0 157.013333 304.264533v483.7376a44.919467 44.919467 0 0 0 44.8512 44.8512h552.004267a44.919467 44.919467 0 0 0 44.8512-44.8512V304.264533a44.919467 44.919467 0 0 0-44.8512-44.8512z" fill="#333333" p-id="942"></path><path d="M723.626667 457.386667H232.106667a27.306667 27.306667 0 0 1 0-54.613334h491.52a27.306667 27.306667 0 0 1 0 54.613334z" fill="#333333" p-id="943"></path><path d="M655.36 498.346667a27.306667 27.306667 0 0 1-27.306667-27.306667V389.12a27.306667 27.306667 0 0 1 54.613334 0v81.92a27.306667 27.306667 0 0 1-27.306667 27.306667zM723.626667 689.493333H232.106667a27.306667 27.306667 0 0 1 0-54.613333h491.52a27.306667 27.306667 0 0 1 0 54.613333z" fill="#333333" p-id="944"></path><path d="M300.373333 730.453333a27.306667 27.306667 0 0 1-27.306666-27.306666V621.226667a27.306667 27.306667 0 0 1 54.613333 0v81.92a27.306667 27.306667 0 0 1-27.306667 27.306666z" fill="#333333" p-id="945"></path></svg>