<?xml version="1.0" standalone="no"?><!DOCTYPE svg PUBLIC "-//W3C//DTD SVG 1.1//EN" "http://www.w3.org/Graphics/SVG/1.1/DTD/svg11.dtd"><svg t="1711635885880" class="icon" viewBox="0 0 1024 1024" version="1.1" xmlns="http://www.w3.org/2000/svg" p-id="1383" xmlns:xlink="http://www.w3.org/1999/xlink" width="128" height="128"><path d="M738.624 828.32v-266.656c0-125.984-100-240-226.656-240s-226.656 113.984-226.656 240v266.656H232a26.656 26.656 0 0 0 0 53.344l560 0.704a27.616 27.616 0 0 0 26.656-27.36 25.6 25.6 0 0 0-26.656-26.656z m-400 0v-253.344a186.784 186.784 0 0 1 48.896-130.304A178.848 178.848 0 0 1 512 375.008c46.656 0 91.104 34.304 124.416 69.664a186.752 186.752 0 0 1 48.896 130.304v253.312H338.656z m182.208-215.648l37.76-35.2a26.624 26.624 0 0 0 6.656-22.112 42.528 42.528 0 0 0-6.656-22.112 28.256 28.256 0 0 0-40 0l-88.832 81.632a25.344 25.344 0 0 0 0 37.6 46.176 46.176 0 0 0 33.344 11.04h62.208l-51.2 55.264a26.624 26.624 0 0 0-6.656 22.112 42.4 42.4 0 0 0 6.656 22.112 29.312 29.312 0 0 0 22.208 6.624 37.632 37.632 0 0 0 22.24-6.624l88.896-84a43.872 43.872 0 0 0 15.552-35.36 34.368 34.368 0 0 0-35.552-30.944h-66.592z m-275.872-11.008H145.344a33.344 33.344 0 1 1 0-66.656h100.032l-0.384 66.656z m534.016 0h99.648a33.344 33.344 0 1 0 0-66.656h-100l0.384 66.656zM281.984 398.752l-70.4-70.4a35.744 35.744 0 0 1 0-47.008 36.096 36.096 0 0 1 47.264 0l70.752 70.752z m196.672-124.128V174.976a35.744 35.744 0 0 1 33.152-33.344 36.064 36.064 0 0 1 33.504 33.344v100.032l-66.656-0.384z m276.544 124.128l70.4-70.4a35.744 35.744 0 0 0 0-47.008 36.096 36.096 0 0 0-47.264 0l-70.752 70.752 47.616 46.656z" p-id="1384" fill="#f4ea2a"></path></svg>