<?xml version="1.0" standalone="no"?><!DOCTYPE svg PUBLIC "-//W3C//DTD SVG 1.1//EN" "http://www.w3.org/Graphics/SVG/1.1/DTD/svg11.dtd"><svg t="1712244633226" class="icon" viewBox="0 0 1024 1024" version="1.1" xmlns="http://www.w3.org/2000/svg" p-id="3455" xmlns:xlink="http://www.w3.org/1999/xlink" width="64" height="64"><path d="M307.2 201.92c-70.6944 0-128 57.3184-128 128v399.0656c0 70.6944 57.3056 128 128 128h68.8896a51.2 51.2 0 0 1 36.1984 15.0016l41.9072 41.8944a76.8 76.8 0 0 0 108.608 0l41.8944-41.8944a51.2 51.2 0 0 1 36.2112-15.0016H819.2c70.6944 0 128-57.3056 128-128V329.92c0-70.6816-57.3056-128-128-128H307.2z" fill="#7acdf8" p-id="3456" data-spm-anchor-id="a313x.collections_detail.0.i33.67e03a81TTK5d9" class="selected"></path><path d="M230.4 115.2C145.5744 115.2 76.8 183.9744 76.8 268.8v384c0 84.8256 68.7744 153.6 153.6 153.6h91.52c25.536 0 46.5152 13.824 60.096 23.3728l0.8064 0.5504 100.48 67.9936a51.2 51.2 0 0 0 57.3952 0l100.48-67.9936 0.8064-0.5504c13.5808-9.5616 34.56-23.3728 60.096-23.3728H793.6c84.8256 0 153.6-68.7744 153.6-153.6V268.8c0-84.8256-68.7744-153.6-153.6-153.6H230.4zM25.6 268.8C25.6 155.6864 117.2864 64 230.4 64h563.2c113.1136 0 204.8 91.6864 204.8 204.8v384c0 113.1136-91.6864 204.8-204.8 204.8h-91.52c-7.8336 0-16.9344 4.4032-30.6432 14.0416-0.512 0.3712-1.0496 0.7296-1.5744 1.088l-100.48 67.9936a102.4 102.4 0 0 1-114.7648 0l-100.48-67.9936a103.0528 103.0528 0 0 1-1.5744-1.088C338.8544 862.0032 329.7536 857.6 321.92 857.6H230.4C117.2864 857.6 25.6 765.9136 25.6 652.8V268.8z" fill="#3A4453" p-id="3457"></path><path d="M296.6016 417.3696a51.2 51.2 0 0 1 72.3968 0c74.9824 74.9824 196.5568 74.9824 271.5392 0a51.2 51.2 0 0 1 72.4096 72.4096c-114.9824 114.9568-301.376 114.9568-416.3456 0a51.2 51.2 0 0 1 0-72.4096z" fill="#1296db" p-id="3458" data-spm-anchor-id="a313x.collections_detail.0.i34.67e03a81TTK5d9" class=""></path></svg>