<?xml version="1.0" standalone="no"?><!DOCTYPE svg PUBLIC "-//W3C//DTD SVG 1.1//EN" "http://www.w3.org/Graphics/SVG/1.1/DTD/svg11.dtd"><svg t="1711627192632" class="icon" viewBox="0 0 1024 1024" version="1.1" xmlns="http://www.w3.org/2000/svg" p-id="6376" xmlns:xlink="http://www.w3.org/1999/xlink" width="200" height="200"><path d="M34.432 952a31.968 31.968 0 0 1-31.072-39.648c33.92-137.568 130.016-253.376 256.864-313.664a303.424 303.424 0 0 1-100.32-224.64c0-166.56 135.488-302.048 302.048-302.048s302.048 135.488 302.048 302.048a303.424 303.424 0 0 1-100.32 224.64c126.848 60.256 222.944 176.064 256.864 313.632a31.904 31.904 0 0 1-31.072 39.648H568.64a32 32 0 0 1 0-64h277.76c-42.272-117.408-138.08-211.488-257.92-250.528a32 32 0 0 1-6.272-58.016 239.168 239.168 0 0 0 117.792-205.408c0-131.264-106.784-238.048-238.048-238.048s-238.048 106.784-238.048 238.048a239.136 239.136 0 0 0 117.792 205.408 32.032 32.032 0 0 1-6.272 58.016c-119.84 39.04-215.648 133.12-257.92 250.528h297.408a32 32 0 0 1 0 64H34.432z" fill="" p-id="6377"></path><path d="M989.536 875.68a32 32 0 0 1-31.04-24.352c-28.256-114.592-115.616-208.544-228.032-245.152a32 32 0 0 1-6.272-58.016 200.128 200.128 0 0 0 98.592-171.872 199.456 199.456 0 0 0-199.2-199.2 32 32 0 0 1 0-64c145.12 0 263.2 118.08 263.2 263.2a264.352 264.352 0 0 1-82.432 191.136c106.816 52.96 187.488 151.712 216.288 268.608a32 32 0 0 1-31.104 39.648z" fill="" p-id="6378"></path><path d="M985.472 893.28H873.92a32 32 0 0 1 0-64h111.552a32 32 0 0 1 0 64z" fill="" p-id="6379"></path></svg>