<?xml version="1.0" standalone="no"?><!DOCTYPE svg PUBLIC "-//W3C//DTD SVG 1.1//EN" "http://www.w3.org/Graphics/SVG/1.1/DTD/svg11.dtd"><svg t="1714903515087" class="icon" viewBox="0 0 1024 1024" version="1.1" xmlns="http://www.w3.org/2000/svg" p-id="2774" xmlns:xlink="http://www.w3.org/1999/xlink" width="128" height="128"><path d="M747.056 896H276.96a114.784 114.784 0 0 1-114.784-114.784V242.784A114.784 114.784 0 0 1 276.944 128H684.32l177.36 175.28v477.936A114.784 114.784 0 0 1 747.056 896z" fill="#FD9F55" p-id="2775"></path><path d="M684.48 128v140.032a38.688 38.688 0 0 0 38.72 38.704h138.64v-3.456L684.48 128z" fill="#FECC87" p-id="2776"></path><path d="M493.056 538.528l-136.432-65.696c-1.28 0-1.904-0.64-2.528-1.264-0.64-0.64-1.28-1.264-2.528-1.264-5.056 0-10.112 5.056-10.112 10.112V632c0 7.584 2.528 15.168 10.112 17.696l136.432 75.792c2.528 2.528 2.528 2.528 5.056 2.528 5.056 0 10.112-5.056 10.112-10.112V556.208c0-7.584-5.056-15.152-10.112-17.68z m-106.176 15.12a9.04 9.04 0 1 1 8.096-16.16l62.768 31.376a9.04 9.04 0 1 1-8.096 16.16l-62.768-31.36z m283.04-118.72l-149.072-63.152a16.112 16.112 0 0 0-15.168 0l-149.056 63.152a5.44 5.44 0 0 0-5.056 5.056c0 5.056 0 10.112 5.056 10.112l149.056 63.168c5.056 2.512 10.112 2.512 15.168 0l149.072-63.168a5.44 5.44 0 0 0 5.04-5.056c2.528-2.528 0-7.584-5.056-10.112z" fill="#FFFFFF" p-id="2777"></path><path d="M669.92 472.832c5.04-2.528 10.096 0 12.64 5.056V632c0 7.584-5.072 15.168-10.112 17.696l-133.92 75.792c-5.056 2.528-10.096 0-12.64-5.056 0-2.528-2.512-2.528-2.512-5.056v-159.168c0-7.584 5.056-15.152 12.64-17.68l133.904-65.696z" fill="#FFFFFF" p-id="2778"></path></svg>