<?xml version="1.0" standalone="no"?><!DOCTYPE svg PUBLIC "-//W3C//DTD SVG 1.1//EN" "http://www.w3.org/Graphics/SVG/1.1/DTD/svg11.dtd"><svg t="1714903487127" class="icon" viewBox="0 0 1024 1024" version="1.1" xmlns="http://www.w3.org/2000/svg" p-id="2270" xmlns:xlink="http://www.w3.org/1999/xlink" width="128" height="128"><path d="M713.536 213.184a62.976 62.976 0 0 0-62.928-62.928h-459.68A62.976 62.976 0 0 0 128 213.184v597.6a62.976 62.976 0 0 0 62.944 62.928h597.76a75.28 75.28 0 0 1-74.992-69.92l-0.16-0.16V213.184zM265.568 574.912H551.2c16.688 0 30.192 13.504 30.192 30.192v2.496a30.16 30.16 0 0 1-30.192 30.176H265.568a30.16 30.16 0 0 1-30.176-30.176v-2.496c0-16.688 13.504-30.192 30.176-30.192z m0-110.144H551.2c16.688 0 30.192 13.6 30.192 30.192v2.496a30.16 30.16 0 0 1-30.192 30.176H265.568a30.16 30.16 0 0 1-30.176-30.176v-2.496c0-16.688 13.504-30.176 30.176-30.176z m0-188.72h128.384a30.24 30.24 0 0 1 30.176 30.256v49.616a30.16 30.16 0 0 1-30.176 30.176h-128.384a30.16 30.16 0 0 1-30.176-30.176V306.24c0-16.688 13.504-30.176 30.176-30.176z" fill="#9076F8" p-id="2271"></path><path d="M833.056 307.52A62.976 62.976 0 0 1 896 370.448v424.672a62.976 62.976 0 0 1-62.944 62.944H801.6a62.976 62.976 0 0 1-62.928-62.944v-487.52h94.4v-0.08z" fill="#C7B0FF" p-id="2272"></path></svg>