<?xml version="1.0" standalone="no"?><!DOCTYPE svg PUBLIC "-//W3C//DTD SVG 1.1//EN" "http://www.w3.org/Graphics/SVG/1.1/DTD/svg11.dtd"><svg t="1714903495867" class="icon" viewBox="0 0 1024 1024" version="1.1" xmlns="http://www.w3.org/2000/svg" p-id="2437" xmlns:xlink="http://www.w3.org/1999/xlink" width="128" height="128"><path d="M736.416 896H290.56c-65.04 0-114.56-59.904-114.56-130.368V258.368C176 184.352 228.64 128 290.56 128h442.752c65.008 0 114.544 59.904 114.544 130.368V762.08c3.12 74.016-49.536 133.92-111.456 133.92z m-343.68-109.2h238.08c12.32 0 24.752-10.56 24.752-28.176s-9.296-28.224-24.8-28.224H392.704c-12.384 0-24.768 10.56-24.768 28.224 0 17.616 12.384 28.176 24.784 28.176zM739.52 307.664c-18.576-17.616-43.36-21.12-58.848-3.504L491.84 504.944l-96-102.144c-15.456-17.616-43.296-14.112-58.8 3.504a45.888 45.888 0 0 0-3.12 63.456l126.896 137.424 3.12 3.504c6.192 7.056 15.456 10.56 24.784 10.56h6.192a32.816 32.816 0 0 0 24.752-10.56l3.088-3.504 219.84-236.064a45.888 45.888 0 0 0-3.072-63.36v-0.096z" fill="#3DD5BB" p-id="2438"></path><path d="M392.736 786.8h238.08c12.32 0 24.752-10.56 24.752-28.176s-9.296-28.224-24.8-28.224H392.704c-12.384 0-24.768 10.56-24.768 28.224 0 17.616 12.384 28.176 24.784 28.176z" fill="#ADF0EA" p-id="2439"></path></svg>