<?xml version="1.0" standalone="no"?><!DOCTYPE svg PUBLIC "-//W3C//DTD SVG 1.1//EN" "http://www.w3.org/Graphics/SVG/1.1/DTD/svg11.dtd"><svg t="1714903501873" class="icon" viewBox="0 0 1024 1024" version="1.1" xmlns="http://www.w3.org/2000/svg" p-id="2606" xmlns:xlink="http://www.w3.org/1999/xlink" width="128" height="128"><path d="M84 662c0-103.824 84.176-188 188-188s188 84.176 188 188-84.176 188-188 188-188-84.176-188-188z m264.672 29.872a12.496 12.496 0 0 0-9.568-4.448h-44.16a12.32 12.32 0 1 1 0-24.672h44.112a12.56 12.56 0 0 0 12.336-14.64c-1.008-6.128-6.8-10.4-13.04-10.4h-22.464a6.288 6.288 0 0 1-4.48-10.72l24.048-24.496a12.528 12.528 0 0 0-1.808-19.04c-5.12-3.616-12.208-2.448-16.576 2l-37.392 38.144a12.56 12.56 0 0 1-17.712 0.16L222.24 584.8a12.544 12.544 0 0 0-19.04 1.808c-3.616 5.072-2.48 12.16 1.968 16.528l24.256 23.792a6.288 6.288 0 0 1-4.4 10.784h-24.096a12.56 12.56 0 0 0-12.336 14.656c1.008 6.16 6.8 10.448 13.056 10.448h43.52a12.32 12.32 0 1 1 0 24.672h-44.24a12.56 12.56 0 0 0-12.336 14.64c1.008 6.128 6.8 10.4 13.056 10.4h43.392c6.88 0 12.464 5.6 12.464 12.48v24.88a12.56 12.56 0 0 0 14.64 12.336c6.16-1.008 10.448-6.8 10.448-13.056v-24.16a12.48 12.48 0 0 1 12.464-12.48h43.36c6.24 0 12.032-4.272 13.04-10.432a12.464 12.464 0 0 0-2.768-10.208z" fill="#92DBFF" p-id="2607"></path><path d="M843.2 340.8l75.2 132.8s25.6 36.8 27.2 67.2v166.4c0 19.2-14.4 33.6-33.6 33.6h-33.6c-8-57.6-57.6-100.8-116.8-100.8-59.2 0-108.8 43.2-116.8 100.8h-124.8c11.2-27.2 16-57.6 16-88 0-140.8-115.2-256-256-256-49.6 0-96 14.4-136 38.4V209.6c0-19.2 14.4-33.6 33.6-33.6h465.6c19.2 0 33.6 16 33.6 33.6v99.2h116.8c20.736 0 30.496 10.96 43.248 25.28l3.152 3.52c0.992 0 1.36 0.608 1.888 1.456 0.32 0.528 0.704 1.12 1.312 1.744z m-132.8 200h171.2c4.8 0 8-4.8 6.4-9.6l-78.4-142.4c-4.8-9.6-12.8-14.4-22.4-14.4h-76.8v166.4z" fill="#42B4FA" p-id="2608"></path><path d="M678.4 756.832c0-46.4 36.8-83.2 83.2-83.2 44.8 0 83.2 36.8 83.2 83.2 0 46.4-36.8 83.2-83.2 83.2-46.4 0-83.2-36.8-83.2-83.2z" fill="#42B4FA" p-id="2609"></path></svg>