<?xml version="1.0" standalone="no"?><!DOCTYPE svg PUBLIC "-//W3C//DTD SVG 1.1//EN" "http://www.w3.org/Graphics/SVG/1.1/DTD/svg11.dtd"><svg t="1714903529407" class="icon" viewBox="0 0 1024 1024" version="1.1" xmlns="http://www.w3.org/2000/svg" p-id="3112" xmlns:xlink="http://www.w3.org/1999/xlink" width="128" height="128"><path d="M867.328 272.608a50.976 50.976 0 0 0 14.928-36.048h-0.048v-9.584A50.976 50.976 0 0 0 831.232 176H191.12a50.976 50.976 0 0 0-50.976 50.976v9.584a50.976 50.976 0 0 0 50.976 50.976h640.16c13.52 0 26.496-5.376 36.048-14.928z" fill="#FD9F55" p-id="3113"></path><path d="M204.128 320.192a63.984 63.984 0 0 0-63.984 63.968V784a63.968 63.968 0 0 0 63.984 64h615.744a63.984 63.984 0 0 0 63.984-64V384.16a63.984 63.984 0 0 0-63.984-63.968H434.016v265.92c0 14.16-17.024 21.344-27.152 11.456l-54.8-53.456-54.816 53.456c-10.128 9.888-27.152 2.72-27.152-11.44V320.192h-65.968z" fill="#FECC87" p-id="3114"></path></svg>