<?xml version="1.0" standalone="no"?><!DOCTYPE svg PUBLIC "-//W3C//DTD SVG 1.1//EN" "http://www.w3.org/Graphics/SVG/1.1/DTD/svg11.dtd"><svg t="1714903525453" class="icon" viewBox="0 0 1024 1024" version="1.1" xmlns="http://www.w3.org/2000/svg" p-id="2945" xmlns:xlink="http://www.w3.org/1999/xlink" width="128" height="128"><path d="M471.36 489.648L178.8 348.8c-2.72 0-4.064-1.36-5.424-2.72-1.36-1.344-2.72-2.704-5.408-2.704-10.848 0-21.68 10.848-21.68 21.68v325.072c0 16.256 5.424 32.512 21.68 37.92l292.56 162.56c5.424 5.408 5.424 5.408 10.832 5.408 10.848 0 21.68-10.832 21.68-21.68V527.584c0-16.24-10.832-32.496-21.68-37.92z m-227.68 32.448a19.376 19.376 0 1 1 17.344-34.672l134.608 67.296a19.392 19.392 0 0 1-17.328 34.688L243.68 522.08zM850.64 267.52L530.96 132.064c-10.832-5.424-21.664-5.424-32.496 0l-319.68 135.456c-5.408 0-10.816 5.408-10.816 10.832 0 10.832 0 21.664 10.832 21.664l319.664 135.456c10.832 5.424 21.664 5.424 32.496 0l319.68-135.456c5.408 0 10.832-5.408 10.832-10.832 5.408-5.424 0-16.256-10.848-21.664z" fill="#42B4FA" p-id="2946"></path><path d="M850.624 348.784c10.848-5.424 21.68 0 27.088 10.832v330.496c0 16.256-10.832 32.512-21.664 37.92l-287.152 162.56c-10.832 5.408-21.68 0-27.088-10.848 0-5.424-5.424-5.424-5.424-10.832V527.568c0-16.24 10.832-32.496 27.088-37.92L850.624 348.8z" fill="#92DBFF" p-id="2947"></path></svg>