<?xml version="1.0" standalone="no"?><!DOCTYPE svg PUBLIC "-//W3C//DTD SVG 1.1//EN" "http://www.w3.org/Graphics/SVG/1.1/DTD/svg11.dtd"><svg t="1714903451831" class="icon" viewBox="0 0 1024 1024" version="1.1" xmlns="http://www.w3.org/2000/svg" p-id="1762" xmlns:xlink="http://www.w3.org/1999/xlink" width="128" height="128"><path d="M714.4 896h-404.8c-35.2 0-65.6-30.4-65.6-65.6 0-35.2 30.4-65.6 65.6-65.6h403.2c35.2 0 65.6 30.4 65.6 65.6 1.6 35.2-28.8 65.6-64 65.6z" fill="#ADF0EA" p-id="1763"></path><path d="M842.4 128h-660.8c-35.2 0-65.6 30.4-65.6 65.6V656c0 35.2 30.4 65.6 65.6 65.6h659.2c35.2 0 65.6-30.4 65.6-65.6V193.6c1.6-35.2-28.8-65.6-64-65.6z m-473.6 480c0 19.2-14.4 33.6-33.6 33.6h-28.8c-19.2 0-33.6-14.4-33.6-33.6V273.6c0-19.2 14.4-33.6 33.6-33.6h28.8c19.2 0 33.6 14.4 33.6 33.6V608z m193.6 0c0 19.2-14.4 33.6-33.6 33.6h-28.8c-19.2 0-33.6-14.4-33.6-33.6V273.6c0-19.2 14.4-33.6 33.6-33.6h28.8c19.2 0 33.6 14.4 33.6 33.6V608z m195.2 0c0 19.2-14.4 33.6-33.6 33.6h-28.8c-19.2 0-33.6-14.4-33.6-33.6V385.6c0-19.2 14.4-33.6 33.6-33.6h28.8c19.2 0 33.6 14.4 33.6 33.6V608z" fill="#3DD5BB" p-id="1764"></path></svg>