<?xml version="1.0" standalone="no"?><!DOCTYPE svg PUBLIC "-//W3C//DTD SVG 1.1//EN" "http://www.w3.org/Graphics/SVG/1.1/DTD/svg11.dtd"><svg t="1714903459077" class="icon" viewBox="0 0 1024 1024" version="1.1" xmlns="http://www.w3.org/2000/svg" p-id="1931" xmlns:xlink="http://www.w3.org/1999/xlink" width="128" height="128"><path d="M908.256 842.272l-80.352-80.72a176.112 176.112 0 1 0-132.464 60.912 175.376 175.376 0 0 0 97.232-29.344l82.192 82.56a23.84 23.84 0 0 0 38.944-26.032 23.84 23.84 0 0 0-5.184-7.728l-0.368 0.368z m-212.8-57.6a138.704 138.704 0 1 1 137.952-138.688 138.336 138.336 0 0 1-137.968 138.688z m118.128-476.976c0-5.136-8.432-8.08-14.672-11.376L466.88 130.112a17.968 17.968 0 0 0-16.88 0l-282.16 141.984a20.544 20.544 0 0 0 0 36.688l298.672 177.216a56.144 56.144 0 0 0 56.496 0l245.84-138.32v86.96a18.352 18.352 0 0 0 18.336 18.352h4.784a18.352 18.352 0 0 0 18.336-18.352v-123.648a3.28 3.28 0 0 0 0-2.56l3.296-0.736zM585.392 805.952a18.704 18.704 0 0 0-26.048-6.96l-73.392 43.296-7.696 4.032V575.52a49.92 49.92 0 0 0-25.68-44.4L135.904 344.736a18.336 18.336 0 0 0-27.52 15.792v317.376a18.72 18.72 0 0 0 8.8 16.144s323.632 196.656 330.24 198.88a24.576 24.576 0 0 0 23.84 0L578.032 832a17.984 17.984 0 0 0 7.344-25.68v-0.368zM342.112 565.344a18.72 18.72 0 0 1-25.328 6.24l-110.064-66.416a18.72 18.72 0 0 1-6.24-25.68 18.72 18.72 0 0 1 25.328-6.24l110.08 66.4a18.72 18.72 0 0 1 6.224 25.696z" fill="#FD9F55" p-id="1932"></path><path d="M695.44 784.672a138.704 138.704 0 1 1 137.968-138.688 138.336 138.336 0 0 1-137.968 138.688z" fill="#FECC87" p-id="1933"></path></svg>