<?xml version="1.0" standalone="no"?><!DOCTYPE svg PUBLIC "-//W3C//DTD SVG 1.1//EN" "http://www.w3.org/Graphics/SVG/1.1/DTD/svg11.dtd"><svg t="1714903437145" class="icon" viewBox="0 0 1024 1024" version="1.1" xmlns="http://www.w3.org/2000/svg" p-id="1179" width="128" height="128" xmlns:xlink="http://www.w3.org/1999/xlink"><path d="M842.4 896h-660.8c-35.2 0-65.6-30.4-65.6-65.6 0-35.2 30.4-65.6 65.6-65.6h659.2c35.2 0 65.6 30.4 65.6 65.6 1.6 35.2-28.8 65.6-64 65.6z" fill="#92DBFF" p-id="1180"></path><path d="M842.4 128h-660.8c-35.2 0-65.6 30.4-65.6 65.6V656c0 35.2 30.4 65.6 65.6 65.6h659.2c35.2 0 65.6-30.4 65.6-65.6V193.6c1.6-35.2-28.8-65.6-64-65.6z m-25.6 209.6l-211.2 195.2c-11.2 11.2-30.4 11.2-41.6 0l-88-81.6c-12.8-11.2-32-11.2-44.8 0l-144 134.4c-9.6 8-20.8 12.8-32 12.8-12.8 0-25.6-4.8-35.2-14.4-17.6-19.2-17.6-49.6 1.6-67.2L432.8 320c11.2-11.2 30.4-11.2 41.6 0l89.6 83.2c12.8 11.2 30.4 11.2 43.2 0l145.6-134.4c20.8-19.2 56-16 73.6 9.6 11.2 19.2 6.4 44.8-9.6 59.2z" fill="#42B4FA" p-id="1181"></path></svg>