<?xml version="1.0" standalone="no"?><!DOCTYPE svg PUBLIC "-//W3C//DTD SVG 1.1//EN" "http://www.w3.org/Graphics/SVG/1.1/DTD/svg11.dtd"><svg t="1714903476978" class="icon" viewBox="0 0 1024 1024" version="1.1" xmlns="http://www.w3.org/2000/svg" p-id="2100" xmlns:xlink="http://www.w3.org/1999/xlink" width="128" height="128"><path d="M680.608 128H92.32c-16.672 0-27.744 11.2-27.744 28v717.568c0 11.2 11.072 22.4 27.744 22.4h588.288c16.672 0 27.744-11.2 27.744-28V156c0-16.736-11.072-28-27.744-28z" fill="#FD9F55" p-id="2101"></path><path d="M251.776 321.12c5.664 0 10.304 4.512 10.752 10.112 0.32 4.256 0.768 8.816 1.36 12.032a124.576 124.576 0 0 0 122.704 102.24 124.56 124.56 0 0 0 124.448-117.168 7.472 7.472 0 0 1 7.392-7.2h50.672a10.4 10.4 0 0 1 10.432 11.056c-0.448 7.216-1.232 16.352-2.256 22.224a193.536 193.536 0 0 1-190.688 159.84 193.52 193.52 0 0 1-193.28-181.6 11.2 11.2 0 0 1 11.2-11.52h47.264z" fill="#FFFFFF" p-id="2102"></path><path d="M772.736 320.704c0-19.632 12.88-32.704 32.192-32.704h122.32c19.312 0 32.192 13.072 32.192 32.704v542.592c0 19.632-12.88 32.688-32.192 32.688h-122.32c-19.312 0-32.192-13.056-32.192-32.704V320.704z" fill="#FECC87" p-id="2103"></path></svg>